<?xml version="1.0" encoding="UTF-8" standalone="no"?>
<!-- Created with Inkscape (http://www.inkscape.org/) -->

<svg
   width="5cm"
   height="5.5999999cm"
   viewBox="0 0 50 55.999999"
   version="1.1"
   id="svg1"
   inkscape:version="1.3.2 (091e20e, 2023-11-25, custom)"
   sodipodi:docname="label-pathized.svg"
   xml:space="preserve"
   xmlns:inkscape="http://www.inkscape.org/namespaces/inkscape"
   xmlns:sodipodi="http://sodipodi.sourceforge.net/DTD/sodipodi-0.dtd"
   xmlns="http://www.w3.org/2000/svg"
   xmlns:svg="http://www.w3.org/2000/svg"><sodipodi:namedview
     id="namedview1"
     pagecolor="#ffffff"
     bordercolor="#666666"
     borderopacity="1.0"
     inkscape:showpageshadow="2"
     inkscape:pageopacity="0.0"
     inkscape:pagecheckerboard="0"
     inkscape:deskcolor="#d1d1d1"
     inkscape:document-units="mm"
     inkscape:zoom="2.133319"
     inkscape:cx="212.57955"
     inkscape:cy="126.79773"
     inkscape:window-width="1920"
     inkscape:window-height="1017"
     inkscape:window-x="-8"
     inkscape:window-y="-8"
     inkscape:window-maximized="1"
     inkscape:current-layer="layer1"
     showgrid="false" /><defs
     id="defs1" /><g
     inkscape:label="Layer 1"
     inkscape:groupmode="layer"
     id="layer1"><rect
       style="fill:none;fill-opacity:1;stroke:#000000;stroke-width:0.25;stroke-linecap:round;stroke-linejoin:round;stroke-dasharray:none;stroke-opacity:1;paint-order:markers fill stroke"
       id="rect1"
       width="43.133163"
       height="52"
       x="3.5900784"
       y="1.9999994"
       rx="1.9999999"
       ry="2" /><path
       style="font-size:8px;line-height:1.25;font-family:HGPMinchoE;-inkscape-font-specification:HGPMinchoE;text-align:center;letter-spacing:0px;word-spacing:0px;text-anchor:middle;stroke-width:0.264583"
       d="m 11.959822,21.188107 q 0.03125,-0.125 0.4375,-0.15625 0.375,-0.03125 0.53125,0.0625 0.09375,0.0625 0.3125,0.25 0.21875,0.21875 0.28125,0.28125 0.125,0.1875 0.0625,0.4375 -0.28125,0.9375 -0.34375,1.28125 -0.09375,0.65625 -0.0625,1 0.0625,0.53125 0.53125,0.96875 l 0.71875,-1.0625 q 0.375,-0.5625 0.53125,-0.78125 0.21875,-0.125 0.09375,0.0625 l -0.5625,1.28125 q -0.125,0.28125 -0.1875,0.46875 -0.09375,0.375 0.03125,0.75 0.09375,0.28125 0.0625,0.46875 -0.09375,0.3125 -0.46875,0.25 -0.40625,-0.0625 -0.8125,-0.65625 -0.3125,-0.46875 -0.46875,-1 -0.21875,-0.71875 -0.125,-1.78125 0.09375,-1.28125 0.03125,-1.65625 -0.03125,-0.21875 -0.53125,-0.40625 z m 4.65625,0.84375 q -0.3125,-0.15625 -0.0625,-0.21875 1.0625,0.1875 1.78125,0.96875 0.34375,0.375 0.53125,1 0.21875,0.6875 0,1.0625 -0.3125,0.46875 -0.78125,0.1875 -0.15625,-0.125 -0.21875,-0.46875 -0.03125,-0.15625 -0.09375,-0.46875 -0.28125,-1.28125 -1.15625,-2.0625 z m 3.3125,-1.1875 q -0.09375,-0.0625 -0.40625,-0.15625 0,-0.0625 0.0625,-0.125 0.15625,-0.25 0.6875,-0.125 0.25,0.09375 0.46875,0.25 0.3125,0.21875 0.375,0.28125 0.28125,0.28125 0.03125,0.53125 -0.125,0.125 -0.15625,0.25 l -0.0625,0.5 q -0.09375,0.6875 -0.125,1.78125 -0.03125,1.0625 0.09375,1.46875 0.25,0.6875 1.15625,0.71875 0.6875,0 1.40625,-0.3125 0.9375,-0.4375 1.65625,-1.1875 0.1875,-0.15625 0.03125,0.15625 -0.625,1.0625 -1.40625,1.5625 -0.59375,0.40625 -1.25,0.53125 -0.875,0.1875 -1.46875,-0.09375 -0.625,-0.28125 -0.875,-0.90625 -0.15625,-0.375 -0.15625,-0.9375 0,-0.9375 0.03125,-2.125 l 0.09375,-1.75 q 0,-0.1875 -0.1875,-0.3125 z m 3.5,1.15625 q 0.1875,0.5 -0.21875,0.5625 -0.25,0 -0.40625,-0.34375 -0.21875,-0.5 -0.46875,-0.71875 -0.375,-0.25 0.03125,-0.1875 0.84375,0.21875 1.0625,0.6875 z m -0.375,-1.03125 q -0.0625,-0.0625 0.03125,-0.09375 0.625,0.03125 1,0.25 0.375,0.21875 0.40625,0.5 0.03125,0.28125 -0.21875,0.375 -0.21875,0.09375 -0.375,-0.15625 -0.3125,-0.5 -0.5,-0.65625 -0.125,-0.09375 -0.34375,-0.21875 z m 3,0.09375 q -0.09375,-0.21875 -0.53125,-0.28125 0,-0.09375 0.09375,-0.15625 0.15625,-0.09375 0.40625,-0.125 0.21875,-0.03125 0.53125,0.21875 0.1875,0.15625 0.375,0.34375 0.28125,0.3125 0.125,0.5625 -0.4375,0.6875 -0.59375,1.4375 -0.0625,0.375 0,0.71875 l 0.28125,-0.53125 q 0.25,-0.46875 0.625,-0.96875 0.375,-0.5 0.75,-0.78125 0.75,-0.5625 1.375,0.0625 0.59375,0.59375 0.5,2.59375 -0.09375,2.125 -1.84375,2.84375 -0.46875,0.1875 -1.15625,0.34375 -0.3125,0.03125 -0.1875,-0.09375 1.34375,-0.53125 1.8125,-1.25 0.3125,-0.5 0.375,-1.28125 0.0625,-0.78125 0,-1.65625 -0.0625,-0.84375 -0.25,-1.125 -0.25,-0.375 -0.71875,-0.03125 -0.25,0.15625 -0.625,0.875 -0.25,0.46875 -0.5,1.46875 -0.0625,0.28125 -0.03125,0.625 0.15625,0.3125 -0.21875,0.5 -0.375,0.0625 -0.5625,-0.1875 -0.15625,-0.21875 -0.25,-0.71875 -0.125,-0.71875 -0.03125,-1.53125 0.0625,-0.5 0.21875,-1.15625 0.09375,-0.53125 0.03125,-0.71875 z m 6.21875,3.8125 v 0.375 q 0,0.1875 -0.125,0.25 -0.4375,0.125 -0.625,0.125 -0.1875,0 -0.1875,-0.1875 v -3.8125 l 1.125,0.53125 h 1.5625 v -1.96875 l 1.125,0.125 q 0.25,0.09375 0.03125,0.375 l -0.21875,0.15625 v 1.3125 h 1.78125 l 0.375,-0.65625 0.84375,0.84375 q 0.1875,0.1875 -0.0625,0.40625 l -0.09375,0.0625 v 2.21875 q 0,0.15625 -0.09375,0.21875 -0.125,0.0625 -0.40625,0.125 -0.4375,0.09375 -0.4375,-0.125 v -0.375 h -1.90625 v 2.25 q 0,0.21875 -0.21875,0.28125 -0.3125,0.09375 -0.5,0.09375 -0.21875,0 -0.21875,-0.21875 v -2.40625 z m 0,-0.21875 h 1.75 v -2.28125 h -1.75 z m 2.6875,-2.28125 v 2.28125 h 1.90625 v -2.28125 z"
       id="text1"
       aria-label="いじり中" /><g
       id="g8"
       transform="matrix(0.16208583,0,0,0.16208583,5.1941296,-117.70139)"><path
         id="path4136"
         style="opacity:1;fill:none;fill-opacity:0.501961;stroke:#000000;stroke-width:3.54331;stroke-linecap:round"
         d="m 28.83513,1046.0744 c -2.87228,2.7949 -6.79442,4.5161 -11.118594,4.5161 -8.8061224,0 -15.9448924,-7.1388 -15.9448819,-15.9449 -1.05e-5,-8.8061 7.1387595,-15.9449 15.9448819,-15.9449 5.147533,0 9.725353,2.4392 12.640651,6.2249 0.167156,0.2171 0.328846,0.4385 0.484865,0.6642"
         sodipodi:nodetypes="cscscc" /><ellipse
         style="opacity:1;fill:#000000;fill-opacity:1;stroke:none;stroke-width:3.54331;stroke-linecap:round;stroke-miterlimit:4;stroke-dasharray:none;stroke-opacity:1"
         id="path4138"
         cx="12.63048"
         cy="1031.0532"
         rx="2.6574802"
         ry="3.5433071" /><path
         style="opacity:1;fill:none;fill-opacity:1;stroke:#000000;stroke-width:3.54375;stroke-linecap:round;stroke-linejoin:round;stroke-miterlimit:4;stroke-dasharray:none;stroke-opacity:1"
         id="path4140"
         sodipodi:type="arc"
         sodipodi:cx="22.630482"
         sodipodi:cy="1032.5247"
         sodipodi:rx="2.744256"
         sodipodi:ry="2.3569717"
         sodipodi:start="3.403392"
         sodipodi:end="6.0213859"
         d="m 19.979734,1031.9146 a 2.744256,2.3569717 0 0 1 2.650748,-1.7469 2.744256,2.3569717 0 0 1 2.650747,1.7469"
         sodipodi:open="true"
         sodipodi:arc-type="arc" /><path
         style="opacity:1;fill:none;fill-opacity:1;stroke:#000000;stroke-width:1.77177;stroke-linecap:round;stroke-linejoin:round;stroke-miterlimit:4;stroke-dasharray:none;stroke-opacity:1"
         id="path4162"
         sodipodi:type="arc"
         sodipodi:cx="295.34244"
         sodipodi:cy="1001.4343"
         sodipodi:rx="1.7996315"
         sodipodi:ry="1.7496966"
         sodipodi:start="3.6651914"
         sodipodi:end="0.78539816"
         sodipodi:open="true"
         d="m 293.78391,1000.5595 a 1.7996315,1.7496966 0 0 1 1.71538,-0.86821 1.7996315,1.7496966 0 0 1 1.53425,1.14461 1.7996315,1.7496966 0 0 1 -0.41857,1.8356"
         transform="matrix(0.96796803,0.25107348,-0.26676835,0.96376068,0,0)"
         sodipodi:arc-type="arc" /><path
         d="m 293.78391,-1004.7837 a 1.7996315,1.7496966 0 0 1 1.71538,-0.8682 1.7996315,1.7496966 0 0 1 1.53425,1.1446 1.7996315,1.7496966 0 0 1 -0.41857,1.8356"
         sodipodi:open="true"
         sodipodi:end="0.78539816"
         sodipodi:start="3.6651914"
         sodipodi:ry="1.7496966"
         sodipodi:rx="1.7996315"
         sodipodi:cy="-1003.9089"
         sodipodi:cx="295.34244"
         sodipodi:type="arc"
         id="path4168"
         style="opacity:1;fill:none;fill-opacity:1;stroke:#000000;stroke-width:1.77177;stroke-linecap:round;stroke-linejoin:round;stroke-miterlimit:4;stroke-dasharray:none;stroke-opacity:1"
         transform="matrix(0.96796803,0.25107348,0.26676835,-0.96376068,0,0)"
         sodipodi:arc-type="arc" /><path
         id="path3-4"
         style="stroke:none;stroke-width:10.6299;stroke-linecap:round;stroke-linejoin:round;stroke-dasharray:none;paint-order:stroke fill markers"
         d="m 302.72215,998.4295 c 3e-5,0.97847 -0.79318,1.7717 -1.77165,1.7717 -0.97847,0 -1.77168,-0.79323 -1.77165,-1.7717 0,-0.97845 0.7932,-1.77165 1.77165,-1.77165 0.97845,0 1.77165,0.7932 1.77165,1.77165 z m -3.64629,-13.99131 c -1.16243,-4e-5 -2.00999,1.1004 -1.71315,2.22429 l 1.87515,7.09627 c 0.46571,1.75711 2.95948,1.75722 3.42535,1.6e-4 l 1.87568,-7.09636 c 0.29667,-1.12414 -0.55145,-2.22454 -1.71408,-2.22395 z"
         sodipodi:nodetypes="cscscccccccc"
         transform="rotate(15)" /></g><text
       xml:space="preserve"
       style="font-size:4.23333px;line-height:1.25;font-family:'BIZ UDMincho';-inkscape-font-specification:'BIZ UDMincho';text-align:center;letter-spacing:0px;word-spacing:0px;text-anchor:middle;stroke-width:0.264583"
       x="13.485135"
       y="51.440487"
       id="text2"><tspan
         sodipodi:role="line"
         id="tspan2"
         style="stroke-width:0.264583;letter-spacing:0px"
         x="13.485135"
         y="51.440487" /></text><g
       id="text3"
       style="font-weight:500;font-size:2.5px;line-height:1.25;font-family:'BIZ UDMincho';-inkscape-font-specification:'BIZ UDMincho Medium';text-align:end;letter-spacing:0px;word-spacing:0px;text-anchor:end;stroke-width:0.264583"
       aria-label="Sharp Techō Tyrfing&#10;rev. 1"><path
         style="font-weight:normal;-inkscape-font-specification:'BIZ UDMincho'"
         d="m 21.352772,48.740849 h 0.08545 q 0.05005,0.567626 0.34668,0.567626 0.109863,0 0.179443,-0.09766 0.07202,-0.102539 0.07202,-0.26123 0,-0.133057 -0.07202,-0.236817 -0.06592,-0.09766 -0.162353,-0.181884 l -0.146485,-0.129395 q -0.292969,-0.258789 -0.292969,-0.550537 0,-0.174561 0.115967,-0.291748 0.108643,-0.111084 0.269776,-0.111084 0.131836,0 0.251464,0.114746 0.02075,0.02075 0.04028,0.02075 0.02808,0 0.03784,-0.10498 h 0.07691 v 0.52246 h -0.08057 q -0.09399,-0.41748 -0.31372,-0.41748 -0.122071,0 -0.184327,0.102539 -0.0415,0.06836 -0.0415,0.17334 0,0.124512 0.07202,0.228271 0.04639,0.06592 0.15625,0.161133 l 0.13916,0.12207 q 0.17334,0.151368 0.230713,0.239258 0.09399,0.145264 0.09399,0.332032 0,0.229492 -0.130615,0.367431 -0.125732,0.134278 -0.29541,0.134278 -0.157471,0 -0.278321,-0.130616 -0.01709,-0.01953 -0.03296,-0.01953 -0.03662,0 -0.05982,0.133057 h -0.0769 z m 1.185302,0.655517 v -0.09033 q 0.08545,-0.01465 0.112305,-0.04761 0.02563,-0.03052 0.02563,-0.102539 v -1.462403 q 0,-0.05859 -0.02808,-0.0769 -0.03174,-0.02197 -0.107422,-0.03052 v -0.09033 q 0.152588,0 0.292969,-0.05005 v 0.762939 q 0.04028,-0.09033 0.106201,-0.145264 0.08179,-0.06714 0.177002,-0.06714 0.196533,0 0.269775,0.231933 0.03906,0.123291 0.03906,0.318604 v 0.609131 q 0,0.08179 0.0293,0.113525 0.0293,0.03052 0.10498,0.03662 v 0.09033 h -0.396729 v -0.09033 q 0.05981,-0.01099 0.07935,-0.03906 0.02319,-0.03418 0.02319,-0.111084 v -0.616455 q 0,-0.39795 -0.177002,-0.39795 -0.06226,0 -0.126954,0.0647 -0.07324,0.07324 -0.128173,0.214843 v 0.734864 q 0,0.08179 0.02441,0.113525 0.01953,0.02564 0.08301,0.03662 v 0.09033 z m 1.920167,-0.877685 v -0.05005 q 0,-0.355225 -0.228272,-0.355225 -0.124512,0 -0.181885,0.09033 0.05982,0.0354 0.05982,0.106201 0,0.03174 -0.01587,0.05737 -0.03174,0.05127 -0.100098,0.05127 -0.05127,0 -0.08423,-0.0354 -0.03418,-0.03662 -0.03418,-0.09522 0,-0.09888 0.09277,-0.186768 0.109863,-0.10498 0.269776,-0.10498 0.211181,0 0.31372,0.164795 0.07568,0.12207 0.07568,0.314941 v 0.665283 q 0,0.128174 0.03662,0.128174 0.03418,0 0.06592,-0.100098 l 0.07202,0.06226 q -0.03052,0.100098 -0.06226,0.145264 -0.04761,0.0647 -0.119629,0.0647 -0.140381,0 -0.157471,-0.214844 -0.04639,0.09644 -0.12085,0.152588 -0.08545,0.06226 -0.185547,0.06226 -0.179443,0 -0.262451,-0.175781 -0.04639,-0.09888 -0.04639,-0.231934 0,-0.203857 0.130615,-0.339355 0.07568,-0.08057 0.212402,-0.128174 0.101318,-0.0354 0.202637,-0.04272 z m 0,0.125732 -0.05249,0.0049 q -0.38208,0.0354 -0.38208,0.377197 0,0.09155 0.02319,0.152588 0.0415,0.107422 0.141601,0.107422 0.09644,0 0.181885,-0.102539 0.08789,-0.106201 0.08789,-0.233155 z M 25.187,49.396366 v -0.09033 q 0.08545,-0.01099 0.114746,-0.03906 0.02808,-0.02808 0.02808,-0.111084 v -0.892334 q 0,-0.07324 -0.03052,-0.100098 -0.02564,-0.02197 -0.109863,-0.02686 v -0.09033 q 0.130615,0 0.290527,-0.05005 v 0.269775 q 0.05493,-0.128174 0.133057,-0.194092 0.08911,-0.07568 0.183105,-0.07568 0.05005,0 0.09277,0.02563 0.08789,0.05249 0.08789,0.150147 0,0.04028 -0.01709,0.07324 -0.03418,0.06592 -0.111084,0.06592 -0.04272,0 -0.07568,-0.02441 -0.04761,-0.0354 -0.04761,-0.09277 0,-0.03906 0.03174,-0.07813 -0.06226,0.02319 -0.124512,0.102539 -0.08911,0.115966 -0.142822,0.255127 v 0.682373 q 0,0.0769 0.0354,0.111084 0.02808,0.02808 0.117188,0.03906 v 0.09033 z m 1.082764,0.297852 v -0.09033 q 0.08911,-0.0061 0.12085,-0.04028 0.02686,-0.0293 0.02686,-0.107421 v -1.192627 q 0,-0.0708 -0.03052,-0.09766 -0.02441,-0.02075 -0.112304,-0.0293 v -0.09033 q 0.184326,-0.0049 0.300293,-0.05005 v 0.195312 q 0.03296,-0.08667 0.113525,-0.144043 0.07202,-0.05127 0.148926,-0.05127 0.164795,0 0.2771,0.173339 0.115966,0.179444 0.115966,0.474854 0,0.303955 -0.09399,0.479736 -0.106201,0.197754 -0.313721,0.197754 -0.113525,0 -0.194091,-0.08057 -0.03296,-0.03418 -0.05371,-0.08179 v 0.296631 q 0,0.07813 0.03174,0.107421 0.03174,0.0293 0.130615,0.04028 v 0.09033 z m 0.533447,-1.573487 q -0.07202,0 -0.13916,0.109864 -0.09399,0.150146 -0.09399,0.419922 0,0.268554 0.04517,0.3833 0.0647,0.163575 0.192871,0.163575 0.108643,0 0.174561,-0.131836 0.07568,-0.148926 0.07568,-0.424805 0,-0.281983 -0.10498,-0.427246 -0.06836,-0.09277 -0.150147,-0.09277 z m 1.998291,-0.623779 h 0.955811 l 0.02197,0.496826 h -0.0769 q -0.02685,-0.205078 -0.07568,-0.279541 -0.06104,-0.09277 -0.169678,-0.09277 h -0.09521 v 1.5625 q 0,0.06348 0.02808,0.08789 0.02808,0.02441 0.112305,0.03418 v 0.09033 h -0.445557 v -0.09033 q 0.08301,-0.0098 0.112305,-0.03418 0.02808,-0.02319 0.02808,-0.08789 v -1.5625 h -0.09521 q -0.118408,0 -0.178222,0.107422 -0.04395,0.07934 -0.06714,0.264892 h -0.0769 z m 1.466065,1.210938 v 0.04761 q 0,0.247803 0.08667,0.39917 0.08545,0.151367 0.216064,0.151367 0.179443,0 0.290527,-0.292969 l 0.07446,0.07568 q -0.135498,0.357666 -0.394287,0.357666 -0.163574,0 -0.281982,-0.144043 -0.161133,-0.197754 -0.161133,-0.563965 0,-0.324707 0.125732,-0.537109 0.123291,-0.205078 0.305176,-0.205078 0.181885,0 0.303955,0.20874 0.109864,0.19043 0.109864,0.452881 v 0.05005 z m 0.495605,-0.119629 q -0.0061,-0.216065 -0.06836,-0.343018 -0.06348,-0.131836 -0.164795,-0.131836 -0.08911,0 -0.163574,0.128174 -0.08301,0.13916 -0.09155,0.34668 z m 1.427002,0.476074 q -0.107422,0.38208 -0.384521,0.38208 -0.212403,0 -0.340577,-0.220947 -0.114746,-0.196534 -0.114746,-0.505371 0,-0.275879 0.104981,-0.471192 0.136719,-0.252685 0.369873,-0.252685 0.147705,0 0.240478,0.09277 0.09277,0.09155 0.09277,0.196533 0,0.05615 -0.03174,0.09277 -0.0354,0.04028 -0.09155,0.04028 -0.07813,0 -0.111084,-0.06958 -0.01099,-0.02197 -0.01099,-0.04761 0,-0.07202 0.05981,-0.109863 -0.03174,-0.07568 -0.13794,-0.07568 -0.107421,0 -0.185546,0.125732 -0.108643,0.172119 -0.108643,0.479736 0,0.266114 0.08789,0.429688 0.08301,0.155029 0.202636,0.155029 0.184327,0 0.279541,-0.302734 z m 0.3479,0.332031 v -0.09033 q 0.08545,-0.01465 0.112305,-0.04761 0.02564,-0.03052 0.02564,-0.102539 v -1.462403 q 0,-0.05859 -0.02808,-0.0769 -0.03174,-0.02197 -0.107422,-0.03052 v -0.09033 q 0.152588,0 0.292969,-0.05005 v 0.762939 q 0.04028,-0.09033 0.106201,-0.145264 0.08179,-0.06714 0.177002,-0.06714 0.196533,0 0.269775,0.231933 0.03906,0.123291 0.03906,0.318604 v 0.609131 q 0,0.08179 0.0293,0.113525 0.0293,0.03052 0.10498,0.03662 v 0.09033 h -0.396729 v -0.09033 q 0.05982,-0.01099 0.07935,-0.03906 0.02319,-0.03418 0.02319,-0.111084 v -0.616455 q 0,-0.39795 -0.177002,-0.39795 -0.06226,0 -0.126954,0.0647 -0.07324,0.07324 -0.128173,0.214843 v 0.734864 q 0,0.08179 0.02441,0.113525 0.01953,0.02564 0.08301,0.03662 v 0.09033 z m 1.351319,-1.791992 h 0.805664 v 0.112305 h -0.805664 z m 0.391846,0.391846 q 0.181884,0 0.307617,0.185547 0.140381,0.207519 0.140381,0.544433 0,0.273438 -0.09277,0.462647 -0.125732,0.257568 -0.358887,0.257568 -0.201416,0 -0.327148,-0.206299 -0.12085,-0.197754 -0.12085,-0.513916 0,-0.377197 0.170899,-0.585937 0.118408,-0.144043 0.280762,-0.144043 z m -0.0024,0.119629 q -0.10376,0 -0.177002,0.131835 -0.09277,0.166016 -0.09277,0.471192 0,0.273437 0.09033,0.452881 0.07813,0.155029 0.180664,0.155029 0.08911,0 0.163574,-0.125732 0.106201,-0.181885 0.106201,-0.479737 0,-0.318603 -0.09888,-0.484619 -0.07202,-0.120849 -0.172119,-0.120849 z m 2.022705,-0.618897 h 0.955811 l 0.02197,0.496826 h -0.0769 q -0.02686,-0.205078 -0.07568,-0.279541 -0.06104,-0.09277 -0.169678,-0.09277 h -0.09522 v 1.5625 q 0,0.06348 0.02808,0.08789 0.02808,0.02441 0.112305,0.03418 v 0.09033 h -0.445557 v -0.09033 q 0.08301,-0.0098 0.112305,-0.03418 0.02808,-0.02319 0.02808,-0.08789 v -1.5625 h -0.09521 q -0.118408,0 -0.178222,0.107422 -0.04395,0.07934 -0.06714,0.264892 h -0.0769 z m 1.206055,0.549316 h 0.419922 v 0.09033 q -0.104981,0.01099 -0.104981,0.05859 0,0.02441 0.01465,0.06592 l 0.245361,0.770264 0.20752,-0.725098 q 0.01709,-0.05981 0.01709,-0.09766 0,-0.04761 -0.09643,-0.0708 l -0.0085,-0.0012 v -0.09033 h 0.362549 v 0.09033 q -0.05249,0.01221 -0.0769,0.03418 -0.03418,0.0293 -0.06714,0.13794 l -0.316162,1.018066 q -0.05615,0.183106 -0.123291,0.269775 -0.07568,0.09766 -0.195313,0.09766 -0.130615,0 -0.195312,-0.106201 -0.03174,-0.05005 -0.03174,-0.10254 0,-0.05615 0.0293,-0.09155 0.03662,-0.04517 0.09888,-0.04517 0.06592,0 0.10376,0.05615 0.02197,0.03296 0.02197,0.07324 0,0.0647 -0.05249,0.108643 0.08545,-0.0061 0.131836,-0.07446 0.0415,-0.06103 0.08057,-0.19043 l 0.02197,-0.07568 -0.334472,-0.994873 Q 37.627186,48.154911 37.507557,48.1366 Z M 38.937,49.396366 v -0.09033 q 0.08545,-0.01099 0.114746,-0.03906 0.02808,-0.02808 0.02808,-0.111084 v -0.892334 q 0,-0.07324 -0.03052,-0.100098 -0.02563,-0.02197 -0.109863,-0.02686 v -0.09033 q 0.130615,0 0.290527,-0.05005 v 0.269775 q 0.05493,-0.128174 0.133057,-0.194092 0.08911,-0.07568 0.183105,-0.07568 0.05005,0 0.09277,0.02563 0.08789,0.05249 0.08789,0.150147 0,0.04028 -0.01709,0.07324 -0.03418,0.06592 -0.111084,0.06592 -0.04272,0 -0.07568,-0.02441 -0.04761,-0.0354 -0.04761,-0.09277 0,-0.03906 0.03174,-0.07813 -0.06226,0.02319 -0.124512,0.102539 -0.08911,0.115966 -0.142822,0.255127 v 0.682373 q 0,0.0769 0.0354,0.111084 0.02808,0.02808 0.117188,0.03906 v 0.09033 z m 1.430664,-1.350098 v -0.185546 q 0,-0.20752 0.07935,-0.317383 0.08423,-0.114746 0.22583,-0.114746 0.113526,0 0.194092,0.07324 0.06104,0.05371 0.06104,0.13916 0,0.04028 -0.01465,0.06714 -0.03052,0.05615 -0.09522,0.05615 -0.05737,0 -0.08789,-0.04272 -0.01953,-0.02686 -0.01953,-0.06348 0,-0.05371 0.03662,-0.08179 -0.02808,-0.03052 -0.07324,-0.03052 -0.146485,0 -0.146485,0.317383 v 0.183105 h 0.317383 v 0.119629 h -0.317383 v 0.989991 q 0,0.0769 0.0293,0.107421 0.03052,0.03174 0.12085,0.04272 v 0.09033 h -0.460205 v -0.09033 q 0.09155,-0.01099 0.120849,-0.04272 0.0293,-0.03174 0.0293,-0.107421 v -0.989991 h -0.255127 v -0.119629 z m 1.412354,-0.667724 q 0.04395,0 0.08301,0.02441 0.07202,0.04639 0.07202,0.130615 0,0.06104 -0.04272,0.106201 -0.04517,0.04883 -0.112305,0.04883 -0.03906,0 -0.07324,-0.01831 -0.08179,-0.04517 -0.08179,-0.136719 0,-0.0708 0.05371,-0.117187 0.04395,-0.03784 0.101319,-0.03784 z m -0.245361,2.017822 v -0.09033 q 0.103759,-0.01465 0.134277,-0.03906 0.03784,-0.03174 0.03784,-0.111084 v -0.892334 q 0,-0.06836 -0.03052,-0.09277 -0.03296,-0.02564 -0.124512,-0.03418 v -0.09033 q 0.148926,-0.0012 0.3125,-0.05005 v 1.159668 q 0,0.08057 0.0354,0.111084 0.03418,0.02808 0.131836,0.03906 v 0.09033 z m 1.003417,0 v -0.09033 q 0.08545,-0.01465 0.112305,-0.04761 0.02564,-0.03052 0.02564,-0.102539 v -0.911866 q 0,-0.05859 -0.02808,-0.07813 -0.03174,-0.02197 -0.107422,-0.0293 v -0.09033 q 0.152588,-0.0012 0.292969,-0.05005 v 0.212402 q 0.04028,-0.09033 0.106201,-0.145264 0.08179,-0.06714 0.177002,-0.06714 0.196533,0 0.269775,0.231933 0.03906,0.123291 0.03906,0.318604 v 0.609131 q 0,0.08179 0.0293,0.113525 0.0293,0.03052 0.10498,0.03662 v 0.09033 h -0.396729 v -0.09033 q 0.05982,-0.01099 0.07935,-0.03906 0.02319,-0.03418 0.02319,-0.111084 v -0.616455 q 0,-0.39795 -0.177002,-0.39795 -0.06226,0 -0.126954,0.0647 -0.07324,0.07324 -0.128173,0.214843 v 0.734864 q 0,0.08179 0.02441,0.113525 0.01953,0.02564 0.08301,0.03662 v 0.09033 z M 44.00536,49.0741 q -0.13794,-0.05493 -0.13794,-0.17456 0,-0.115967 0.133057,-0.166016 -0.130615,-0.106201 -0.130615,-0.318603 0,-0.13794 0.06836,-0.247803 0.108643,-0.170898 0.300293,-0.170898 0.145264,0 0.231934,0.107422 0.04639,-0.09155 0.129394,-0.134278 0.04639,-0.02319 0.08667,-0.02319 0.05127,0 0.08911,0.03906 0.04395,0.04639 0.04395,0.114746 0,0.113526 -0.09888,0.113526 -0.03418,0 -0.05982,-0.02197 -0.03418,-0.02808 -0.03418,-0.07935 0,-0.01709 0.0061,-0.04028 -0.05127,0.0037 -0.09766,0.09888 0.06958,0.109863 0.06958,0.246582 0,0.168457 -0.07568,0.272217 -0.09521,0.126953 -0.285644,0.126953 -0.08423,0 -0.147705,-0.02319 -0.08301,0.0098 -0.08301,0.08301 0,0.04517 0.0415,0.06592 0.04394,0.02197 0.128174,0.03174 l 0.202636,0.02197 q 0.164795,0.01831 0.247803,0.08667 0.102539,0.08301 0.102539,0.253907 0,0.357666 -0.484619,0.357666 -0.192871,0 -0.310059,-0.08423 -0.133056,-0.09643 -0.133056,-0.270996 0,-0.186768 0.197754,-0.252685 z m 0.230713,-0.965576 q -0.09766,0 -0.153809,0.09521 -0.05005,0.08545 -0.05005,0.216065 0,0.101318 0.03052,0.170898 0.05127,0.115967 0.177002,0.115967 0.102539,0 0.15747,-0.08911 0.04761,-0.07813 0.04761,-0.202637 0,-0.152588 -0.07568,-0.241699 -0.05493,-0.0647 -0.133056,-0.0647 z m 0.01709,1.035157 q -0.29541,0 -0.29541,0.186767 0,0.07935 0.05249,0.145264 0.08667,0.108642 0.246582,0.108642 0.108643,0 0.185547,-0.04395 0.117188,-0.06714 0.117188,-0.195312 0,-0.201416 -0.306397,-0.201416 z"
         id="path12" /><path
         style="font-weight:normal;-inkscape-font-specification:'BIZ UDMincho'"
         d="m 37.687,52.521366 v -0.09033 q 0.08545,-0.01099 0.114746,-0.03906 0.02808,-0.02808 0.02808,-0.111084 v -0.892334 q 0,-0.07324 -0.03052,-0.100098 -0.02563,-0.02197 -0.109863,-0.02686 v -0.09033 q 0.130615,0 0.290527,-0.05005 v 0.269775 q 0.05493,-0.128174 0.133057,-0.194092 0.08911,-0.07568 0.183105,-0.07568 0.05005,0 0.09277,0.02563 0.08789,0.05249 0.08789,0.150147 0,0.04028 -0.01709,0.07324 -0.03418,0.06592 -0.111084,0.06592 -0.04272,0 -0.07568,-0.02441 -0.04761,-0.0354 -0.04761,-0.09277 0,-0.03906 0.03174,-0.07813 -0.06226,0.02319 -0.124512,0.102539 -0.08911,0.115966 -0.142822,0.255127 v 0.682373 q 0,0.0769 0.0354,0.111084 0.02808,0.02808 0.117188,0.03906 v 0.09033 z m 1.330567,-0.688476 v 0.04761 q 0,0.247803 0.08667,0.39917 0.08545,0.151367 0.216064,0.151367 0.179443,0 0.290527,-0.292969 l 0.07446,0.07568 q -0.135498,0.357666 -0.394287,0.357666 -0.163574,0 -0.281982,-0.144043 -0.161133,-0.197754 -0.161133,-0.563965 0,-0.324707 0.125732,-0.537109 0.123291,-0.205078 0.305176,-0.205078 0.181885,0 0.303955,0.20874 0.109864,0.19043 0.109864,0.452881 v 0.05005 z m 0.495605,-0.119629 q -0.0061,-0.216065 -0.06836,-0.343018 -0.06348,-0.131836 -0.164795,-0.131836 -0.08911,0 -0.163574,0.128174 -0.08301,0.13916 -0.09155,0.34668 z m 0.496826,-0.541993 h 0.410157 v 0.09033 q -0.09522,0.01099 -0.09522,0.06836 0,0.02319 0.01709,0.08911 l 0.228271,0.854492 0.20752,-0.814209 q 0.01709,-0.06836 0.01709,-0.115966 0,-0.06348 -0.107421,-0.08179 v -0.09033 h 0.357666 v 0.09033 q -0.06226,0.01221 -0.08545,0.04517 -0.02808,0.03906 -0.05981,0.15747 l -0.286865,1.087647 h -0.12085 l -0.332031,-1.12793 q -0.02319,-0.08057 -0.05249,-0.117187 -0.03052,-0.04028 -0.09766,-0.04517 z m 1.517334,1.060791 q 0.05249,0 0.100098,0.02808 0.09399,0.05615 0.09399,0.167236 0,0.07324 -0.04883,0.128174 -0.05859,0.06592 -0.147705,0.06592 -0.04517,0 -0.08667,-0.02075 -0.106201,-0.05493 -0.106201,-0.174561 0,-0.08301 0.06103,-0.141601 0.05615,-0.05249 0.134277,-0.05249 z m 2.480469,-1.466064 v -0.08911 q 0.220947,-0.02808 0.369873,-0.12085 v 1.697998 q 0,0.09155 0.04395,0.133057 0.03418,0.03296 0.153809,0.04394 v 0.09033 h -0.565186 v -0.09033 q 0.125733,-0.0098 0.166016,-0.05005 0.03662,-0.03662 0.03662,-0.126953 v -1.362305 q 0,-0.08545 -0.01343,-0.106201 -0.01099,-0.01953 -0.06226,-0.01953 z"
         id="path22" /></g><path
       d="m 12.673324,49.445801 q 0.220703,0 0.363281,0.146484 0.149414,0.15332 0.149414,0.402344 0,0.196289 -0.0918,0.336914 -0.141601,0.21582 -0.422851,0.21582 -0.246094,0 -0.388672,-0.171875 -0.125,-0.149414 -0.125,-0.381836 0,-0.249023 0.148437,-0.40039 0.143555,-0.147461 0.367188,-0.147461 z m -0.0029,0.211914 q -0.124023,0 -0.195313,0.107422 -0.05957,0.08984 -0.05957,0.227539 0,0.104492 0.0332,0.182617 0.06641,0.154297 0.22461,0.154297 0.125976,0 0.195312,-0.105469 0.05957,-0.09082 0.05957,-0.231445 0,-0.142578 -0.06348,-0.232422 -0.07129,-0.102539 -0.194336,-0.102539 z m 0.985352,0.704101 -0.01172,0.08008 q -0.01367,0.09375 -0.107422,0.09375 -0.104492,0 -0.104492,-0.106446 V 49.13916 q 0,-0.03906 0.02441,-0.06738 0.03613,-0.04004 0.100586,-0.04004 0.07422,0 0.108398,0.05078 0.0166,0.02441 0.0166,0.05664 v 0.448242 q 0.109375,-0.135742 0.307617,-0.135742 0.231445,0 0.37207,0.185547 0.112305,0.149414 0.112305,0.358398 0,0.225586 -0.115234,0.374024 -0.135743,0.173828 -0.365235,0.173828 -0.146484,0 -0.258789,-0.09082 -0.04785,-0.03809 -0.0791,-0.09082 z m 0.02441,-0.426757 v 0.07813 q 0,0.163086 0.120117,0.260742 0.06934,0.05566 0.15039,0.05566 0.116211,0 0.188477,-0.0918 0.07324,-0.0918 0.07324,-0.243164 0,-0.166992 -0.09473,-0.260742 -0.07129,-0.07031 -0.171875,-0.07031 -0.08691,0 -0.160157,0.05762 -0.105468,0.08399 -0.105468,0.213868 z m 1.414062,-0.489258 q 0.211914,0 0.339844,0.08887 0.06934,0.04785 0.06934,0.113281 0,0.03809 -0.02344,0.07129 -0.03223,0.04395 -0.08789,0.04395 -0.03613,0 -0.08008,-0.03418 -0.09961,-0.07715 -0.22168,-0.07715 -0.158203,0 -0.158203,0.08984 0,0.05274 0.05664,0.08203 0.01855,0.0088 0.06348,0.02344 0.264648,0.08105 0.327148,0.112305 0.163086,0.08105 0.163086,0.258789 0,0.165039 -0.130859,0.252929 -0.114258,0.07617 -0.30957,0.07617 -0.223633,0 -0.368164,-0.101562 -0.09375,-0.06641 -0.09375,-0.138672 0,-0.03418 0.02246,-0.06641 0.03125,-0.04395 0.08301,-0.04395 0.04102,0 0.07715,0.03418 0.109375,0.104492 0.277343,0.104492 0.174805,0 0.174805,-0.09375 0,-0.06348 -0.08789,-0.106445 -0.05664,-0.02637 -0.272461,-0.09277 -0.234375,-0.07129 -0.234375,-0.286132 0,-0.167969 0.161132,-0.254883 0.102539,-0.05566 0.25293,-0.05566 z m 0.956055,0.708008 v 0.273437 q 0,0.04687 -0.03223,0.0752 -0.03809,0.0332 -0.09375,0.0332 -0.08203,0 -0.113281,-0.05957 -0.01074,-0.02148 -0.01074,-0.04883 v -1.290039 q 0,-0.03906 0.02441,-0.06543 0.03613,-0.04004 0.09961,-0.04004 0.0791,0 0.112305,0.05469 0.01367,0.02246 0.01367,0.05078 v 0.728516 l 0.433594,-0.368164 q 0.04395,-0.03711 0.09082,-0.03711 0.04394,0 0.07813,0.0332 0.04199,0.04199 0.04199,0.09277 0,0.05078 -0.04297,0.08496 l -0.307617,0.246093 0.358399,0.393555 q 0.03613,0.04102 0.03613,0.09277 0,0.06152 -0.0459,0.0957 -0.04395,0.0332 -0.09375,0.0332 -0.05664,0 -0.09668,-0.04883 l -0.339844,-0.420899 z m 1.213867,0.288086 -0.416016,-0.810547 q -0.01367,-0.02637 -0.01367,-0.05274 0,-0.06836 0.06934,-0.104492 0.03223,-0.01758 0.06738,-0.01758 0.08301,0 0.125,0.08887 l 0.303711,0.644531 0.276367,-0.644531 q 0.03711,-0.08691 0.116211,-0.08691 0.04102,0 0.08106,0.01953 0.06445,0.03125 0.06445,0.09766 0,0.03027 -0.01563,0.06348 l -0.592773,1.242188 q -0.04102,0.08691 -0.120118,0.08691 -0.02539,0 -0.05176,-0.0088 -0.0791,-0.02637 -0.0791,-0.103516 0,-0.02441 0.01172,-0.04883 z m 1.118164,-0.484375 v 0.469726 q 0,0.04199 -0.02734,0.07031 -0.03711,0.03809 -0.09961,0.03809 -0.07422,0 -0.108399,-0.05078 -0.0166,-0.02441 -0.0166,-0.05762 v -0.868164 q 0,-0.03906 0.02441,-0.06641 0.03516,-0.03711 0.09473,-0.03711 0.0752,0 0.105468,0.05664 0.01172,0.02051 0.01172,0.04687 v 0.102539 q 0.04981,-0.08594 0.09961,-0.132812 0.0918,-0.08399 0.219727,-0.08399 0.100586,0 0.172852,0.06348 0.05176,0.0459 0.05176,0.104492 0,0.04199 -0.02832,0.07813 -0.03906,0.0498 -0.100586,0.0498 -0.04004,0 -0.06738,-0.02149 -0.03613,-0.02832 -0.08398,-0.02832 -0.145508,0 -0.248047,0.266602 z"
       id="text5"
       style="font-size:2px;line-height:1.25;font-family:'UD Digi Kyokasho NP-B';-inkscape-font-specification:'UD Digi Kyokasho NP-B';text-align:center;letter-spacing:0px;word-spacing:0px;text-anchor:middle;stroke-width:0.264583"
       aria-label="obskyr" /><rect
       style="fill:#000000;stroke-width:3.96023;stroke-linecap:round;stroke-linejoin:round;paint-order:stroke fill markers"
       id="rect5"
       width="2"
       height="2"
       x="-6.9388939e-18"
       y="-6.9388939e-18" /><path
       id="rect2-1"
       style="fill:#ffffff;stroke:#000000;stroke-width:0.249999;stroke-linecap:round;stroke-linejoin:round;stroke-dasharray:none;paint-order:stroke markers fill"
       d="M 3.5900784,5.999999 46.723238,6 Z"
       sodipodi:nodetypes="ccc" /><path
       id="path2-4"
       style="fill:#ffffff;stroke:#000000;stroke-width:0.249999;stroke-linecap:round;stroke-linejoin:round;stroke-dasharray:none;paint-order:stroke markers fill"
       d="M 3.5900784,9.999999 46.723238,10 Z"
       sodipodi:nodetypes="ccc" /><path
       id="path3-7"
       style="fill:#ffffff;stroke:#000000;stroke-width:0.249999;stroke-linecap:round;stroke-linejoin:round;stroke-dasharray:none;paint-order:stroke markers fill"
       d="m 3.5900784,14 43.1331596,10e-7 z"
       sodipodi:nodetypes="ccc" /><path
       id="path4-8"
       style="fill:#ffffff;stroke:#000000;stroke-width:0.249999;stroke-linecap:round;stroke-linejoin:round;stroke-dasharray:none;paint-order:stroke markers fill"
       d="m 3.5900784,18 43.1331596,1e-6 z"
       sodipodi:nodetypes="ccc" /><path
       id="path5-9"
       style="fill:#ffffff;stroke:#000000;stroke-width:0.249999;stroke-linecap:round;stroke-linejoin:round;stroke-dasharray:none;paint-order:stroke markers fill"
       d="m 39.709505,22 7.013733,1e-6 z"
       sodipodi:nodetypes="ccc" /><path
       id="path6-7"
       style="fill:#ffffff;stroke:#000000;stroke-width:0.249999;stroke-linecap:round;stroke-linejoin:round;stroke-dasharray:none;paint-order:stroke markers fill"
       d="m 39.380548,26 7.34269,1e-6 z"
       sodipodi:nodetypes="ccc" /><path
       id="path7-7"
       style="fill:#ffffff;stroke:#000000;stroke-width:0.249999;stroke-linecap:round;stroke-linejoin:round;stroke-dasharray:none;paint-order:stroke markers fill"
       d="m 3.5900784,30 43.1331596,1e-6 z"
       sodipodi:nodetypes="ccc" /><path
       id="path8-7"
       style="fill:#ffffff;stroke:#000000;stroke-width:0.249999;stroke-linecap:round;stroke-linejoin:round;stroke-dasharray:none;paint-order:stroke markers fill"
       d="m 3.5900784,34 43.1331596,10e-7 z"
       sodipodi:nodetypes="ccc" /><path
       id="path9-4"
       style="fill:#ffffff;stroke:#000000;stroke-width:0.249999;stroke-linecap:round;stroke-linejoin:round;stroke-dasharray:none;paint-order:stroke markers fill"
       d="m 3.5900784,38 43.1331596,10e-7 z"
       sodipodi:nodetypes="ccc" /><path
       id="path10-7"
       style="fill:#ffffff;stroke:#000000;stroke-width:0.249999;stroke-linecap:round;stroke-linejoin:round;stroke-dasharray:none;paint-order:stroke markers fill"
       d="m 3.5900784,42 43.1331596,10e-7 z"
       sodipodi:nodetypes="ccc" /><path
       id="path11-7"
       style="fill:#ffffff;stroke:#000000;stroke-width:0.249999;stroke-linecap:round;stroke-linejoin:round;stroke-dasharray:none;paint-order:stroke markers fill"
       d="m 3.5900784,46 43.1331596,10e-7 z"
       sodipodi:nodetypes="ccc" /><path
       id="path13-3"
       style="fill:#ffffff;stroke:#000000;stroke-width:0.249999;stroke-linecap:round;stroke-linejoin:round;stroke-dasharray:none;paint-order:stroke markers fill"
       d="M 42.409922,2 V 46 Z"
       sodipodi:nodetypes="ccc" /><path
       id="path14-4"
       style="fill:#ffffff;stroke:#000000;stroke-width:0.249999;stroke-linecap:round;stroke-linejoin:round;stroke-dasharray:none;paint-order:stroke markers fill"
       d="M 38.096606,2 V 20.051687 Z"
       sodipodi:nodetypes="ccc" /><path
       id="path15-0"
       style="fill:#ffffff;stroke:#000000;stroke-width:0.249999;stroke-linecap:round;stroke-linejoin:round;stroke-dasharray:none;paint-order:stroke markers fill"
       d="M 33.78329,2 V 19.393774 Z"
       sodipodi:nodetypes="ccc" /><path
       id="path16-2"
       style="fill:#ffffff;stroke:#000000;stroke-width:0.249999;stroke-linecap:round;stroke-linejoin:round;stroke-dasharray:none;paint-order:stroke markers fill"
       d="M 29.469974,2 V 19.1964 Z"
       sodipodi:nodetypes="ccc" /><path
       id="path17-2"
       style="fill:#ffffff;stroke:#000000;stroke-width:0.249999;stroke-linecap:round;stroke-linejoin:round;stroke-dasharray:none;paint-order:stroke markers fill"
       d="M 25.156658,2 V 19.459565 Z"
       sodipodi:nodetypes="ccc" /><path
       id="path18-3"
       style="fill:#ffffff;stroke:#000000;stroke-width:0.249999;stroke-linecap:round;stroke-linejoin:round;stroke-dasharray:none;paint-order:stroke markers fill"
       d="M 20.843342,2 V 19.262191 Z"
       sodipodi:nodetypes="ccc" /><path
       id="path19-6"
       style="fill:#ffffff;stroke:#000000;stroke-width:0.249999;stroke-linecap:round;stroke-linejoin:round;stroke-dasharray:none;paint-order:stroke markers fill"
       d="M 16.530026,2 V 20.314852 Z"
       sodipodi:nodetypes="ccc" /><path
       style="fill:#ffffff;stroke:#000000;stroke-width:0.249999;stroke-linecap:round;stroke-linejoin:round;stroke-dasharray:none;paint-order:stroke markers fill"
       d="M 12.21671,19.788521 V 2"
       id="path20-7"
       sodipodi:nodetypes="cc" /><path
       id="path21-3"
       style="fill:#ffffff;stroke:#000000;stroke-width:0.249999;stroke-linecap:round;stroke-linejoin:round;stroke-dasharray:none;paint-order:stroke markers fill"
       d="M 7.9033947,2 V 46 Z"
       sodipodi:nodetypes="ccc" /><path
       id="path39-4"
       style="fill:#ffffff;stroke:#000000;stroke-width:0.249999;stroke-linecap:round;stroke-linejoin:round;stroke-dasharray:none;paint-order:stroke markers fill"
       d="M 38.096606,27.527026 V 46 Z"
       sodipodi:nodetypes="ccc" /><path
       id="path40-8"
       style="fill:#ffffff;stroke:#000000;stroke-width:0.249999;stroke-linecap:round;stroke-linejoin:round;stroke-dasharray:none;paint-order:stroke markers fill"
       d="M 33.78329,28.316522 V 46 Z"
       sodipodi:nodetypes="ccc" /><path
       id="path41-3"
       style="fill:#ffffff;stroke:#000000;stroke-width:0.249999;stroke-linecap:round;stroke-linejoin:round;stroke-dasharray:none;paint-order:stroke markers fill"
       d="M 29.469974,28.382313 V 46 Z"
       sodipodi:nodetypes="ccc" /><path
       id="path42-9"
       style="fill:#ffffff;stroke:#000000;stroke-width:0.249999;stroke-linecap:round;stroke-linejoin:round;stroke-dasharray:none;paint-order:stroke markers fill"
       d="M 25.156658,27.921774 V 46 Z"
       sodipodi:nodetypes="ccc" /><path
       id="path43-4"
       style="fill:#ffffff;stroke:#000000;stroke-width:0.249999;stroke-linecap:round;stroke-linejoin:round;stroke-dasharray:none;paint-order:stroke markers fill"
       d="M 20.843342,28.382313 V 46 Z"
       sodipodi:nodetypes="ccc" /><path
       id="path44-5"
       style="fill:#ffffff;stroke:#000000;stroke-width:0.249999;stroke-linecap:round;stroke-linejoin:round;stroke-dasharray:none;paint-order:stroke markers fill"
       d="M 16.530026,27.395444 V 46 Z"
       sodipodi:nodetypes="ccc" /><path
       style="fill:#ffffff;stroke:#000000;stroke-width:0.249999;stroke-linecap:round;stroke-linejoin:round;stroke-dasharray:none;paint-order:stroke markers fill"
       d="M 12.21671,46 V 27.888449"
       id="path45-7"
       sodipodi:nodetypes="cc" /><path
       id="path46-1"
       style="fill:#ffffff;stroke:#000000;stroke-width:0.249999;stroke-linecap:round;stroke-linejoin:round;stroke-dasharray:none;paint-order:stroke markers fill"
       d="m 3.5900784,22 6.0926549,1e-6 z"
       sodipodi:nodetypes="ccc" /><path
       id="path47-6"
       style="fill:#ffffff;stroke:#000000;stroke-width:0.249999;stroke-linecap:round;stroke-linejoin:round;stroke-dasharray:none;paint-order:stroke markers fill"
       d="m 3.5900784,26 7.1453156,1e-6 z"
       sodipodi:nodetypes="ccc" /></g></svg>
