<?xml version="1.0" encoding="UTF-8" standalone="no"?>
<!-- Created with Inkscape (http://www.inkscape.org/) -->

<svg
   width="5cm"
   height="5.5999999cm"
   viewBox="0 0 50 55.999999"
   version="1.1"
   id="svg1"
   inkscape:version="1.3.2 (091e20e, 2023-11-25, custom)"
   sodipodi:docname="label-pathized.svg"
   xml:space="preserve"
   xmlns:inkscape="http://www.inkscape.org/namespaces/inkscape"
   xmlns:sodipodi="http://sodipodi.sourceforge.net/DTD/sodipodi-0.dtd"
   xmlns="http://www.w3.org/2000/svg"
   xmlns:svg="http://www.w3.org/2000/svg"><sodipodi:namedview
     id="namedview1"
     pagecolor="#ffffff"
     bordercolor="#666666"
     borderopacity="1.0"
     inkscape:showpageshadow="2"
     inkscape:pageopacity="0.0"
     inkscape:pagecheckerboard="0"
     inkscape:deskcolor="#d1d1d1"
     inkscape:document-units="mm"
     inkscape:zoom="2.133319"
     inkscape:cx="212.57955"
     inkscape:cy="109.92261"
     inkscape:window-width="1920"
     inkscape:window-height="1017"
     inkscape:window-x="-8"
     inkscape:window-y="-8"
     inkscape:window-maximized="1"
     inkscape:current-layer="layer1"
     showgrid="false" /><defs
     id="defs1" /><g
     inkscape:label="Layer 1"
     inkscape:groupmode="layer"
     id="layer1"><rect
       style="fill:none;fill-opacity:1;stroke:#000000;stroke-width:0.25;stroke-linecap:round;stroke-linejoin:round;stroke-dasharray:none;stroke-opacity:1;paint-order:markers fill stroke"
       id="rect1"
       width="43.133163"
       height="52"
       x="3.5900784"
       y="1.9999994"
       rx="1.9999999"
       ry="2" /><path
       style="font-size:8px;line-height:1.25;font-family:HGPMinchoE;-inkscape-font-specification:HGPMinchoE;text-align:center;letter-spacing:0px;word-spacing:0px;text-anchor:middle;stroke-width:0.264583"
       d="m 11.959822,21.188107 q 0.03125,-0.125 0.4375,-0.15625 0.375,-0.03125 0.53125,0.0625 0.09375,0.0625 0.3125,0.25 0.21875,0.21875 0.28125,0.28125 0.125,0.1875 0.0625,0.4375 -0.28125,0.9375 -0.34375,1.28125 -0.09375,0.65625 -0.0625,1 0.0625,0.53125 0.53125,0.96875 l 0.71875,-1.0625 q 0.375,-0.5625 0.53125,-0.78125 0.21875,-0.125 0.09375,0.0625 l -0.5625,1.28125 q -0.125,0.28125 -0.1875,0.46875 -0.09375,0.375 0.03125,0.75 0.09375,0.28125 0.0625,0.46875 -0.09375,0.3125 -0.46875,0.25 -0.40625,-0.0625 -0.8125,-0.65625 -0.3125,-0.46875 -0.46875,-1 -0.21875,-0.71875 -0.125,-1.78125 0.09375,-1.28125 0.03125,-1.65625 -0.03125,-0.21875 -0.53125,-0.40625 z m 4.65625,0.84375 q -0.3125,-0.15625 -0.0625,-0.21875 1.0625,0.1875 1.78125,0.96875 0.34375,0.375 0.53125,1 0.21875,0.6875 0,1.0625 -0.3125,0.46875 -0.78125,0.1875 -0.15625,-0.125 -0.21875,-0.46875 -0.03125,-0.15625 -0.09375,-0.46875 -0.28125,-1.28125 -1.15625,-2.0625 z m 3.3125,-1.1875 q -0.09375,-0.0625 -0.40625,-0.15625 0,-0.0625 0.0625,-0.125 0.15625,-0.25 0.6875,-0.125 0.25,0.09375 0.46875,0.25 0.3125,0.21875 0.375,0.28125 0.28125,0.28125 0.03125,0.53125 -0.125,0.125 -0.15625,0.25 l -0.0625,0.5 q -0.09375,0.6875 -0.125,1.78125 -0.03125,1.0625 0.09375,1.46875 0.25,0.6875 1.15625,0.71875 0.6875,0 1.40625,-0.3125 0.9375,-0.4375 1.65625,-1.1875 0.1875,-0.15625 0.03125,0.15625 -0.625,1.0625 -1.40625,1.5625 -0.59375,0.40625 -1.25,0.53125 -0.875,0.1875 -1.46875,-0.09375 -0.625,-0.28125 -0.875,-0.90625 -0.15625,-0.375 -0.15625,-0.9375 0,-0.9375 0.03125,-2.125 l 0.09375,-1.75 q 0,-0.1875 -0.1875,-0.3125 z m 3.5,1.15625 q 0.1875,0.5 -0.21875,0.5625 -0.25,0 -0.40625,-0.34375 -0.21875,-0.5 -0.46875,-0.71875 -0.375,-0.25 0.03125,-0.1875 0.84375,0.21875 1.0625,0.6875 z m -0.375,-1.03125 q -0.0625,-0.0625 0.03125,-0.09375 0.625,0.03125 1,0.25 0.375,0.21875 0.40625,0.5 0.03125,0.28125 -0.21875,0.375 -0.21875,0.09375 -0.375,-0.15625 -0.3125,-0.5 -0.5,-0.65625 -0.125,-0.09375 -0.34375,-0.21875 z m 3,0.09375 q -0.09375,-0.21875 -0.53125,-0.28125 0,-0.09375 0.09375,-0.15625 0.15625,-0.09375 0.40625,-0.125 0.21875,-0.03125 0.53125,0.21875 0.1875,0.15625 0.375,0.34375 0.28125,0.3125 0.125,0.5625 -0.4375,0.6875 -0.59375,1.4375 -0.0625,0.375 0,0.71875 l 0.28125,-0.53125 q 0.25,-0.46875 0.625,-0.96875 0.375,-0.5 0.75,-0.78125 0.75,-0.5625 1.375,0.0625 0.59375,0.59375 0.5,2.59375 -0.09375,2.125 -1.84375,2.84375 -0.46875,0.1875 -1.15625,0.34375 -0.3125,0.03125 -0.1875,-0.09375 1.34375,-0.53125 1.8125,-1.25 0.3125,-0.5 0.375,-1.28125 0.0625,-0.78125 0,-1.65625 -0.0625,-0.84375 -0.25,-1.125 -0.25,-0.375 -0.71875,-0.03125 -0.25,0.15625 -0.625,0.875 -0.25,0.46875 -0.5,1.46875 -0.0625,0.28125 -0.03125,0.625 0.15625,0.3125 -0.21875,0.5 -0.375,0.0625 -0.5625,-0.1875 -0.15625,-0.21875 -0.25,-0.71875 -0.125,-0.71875 -0.03125,-1.53125 0.0625,-0.5 0.21875,-1.15625 0.09375,-0.53125 0.03125,-0.71875 z m 6.21875,3.8125 v 0.375 q 0,0.1875 -0.125,0.25 -0.4375,0.125 -0.625,0.125 -0.1875,0 -0.1875,-0.1875 v -3.8125 l 1.125,0.53125 h 1.5625 v -1.96875 l 1.125,0.125 q 0.25,0.09375 0.03125,0.375 l -0.21875,0.15625 v 1.3125 h 1.78125 l 0.375,-0.65625 0.84375,0.84375 q 0.1875,0.1875 -0.0625,0.40625 l -0.09375,0.0625 v 2.21875 q 0,0.15625 -0.09375,0.21875 -0.125,0.0625 -0.40625,0.125 -0.4375,0.09375 -0.4375,-0.125 v -0.375 h -1.90625 v 2.25 q 0,0.21875 -0.21875,0.28125 -0.3125,0.09375 -0.5,0.09375 -0.21875,0 -0.21875,-0.21875 v -2.40625 z m 0,-0.21875 h 1.75 v -2.28125 h -1.75 z m 2.6875,-2.28125 v 2.28125 h 1.90625 v -2.28125 z"
       id="text1"
       aria-label="いじり中" /><g
       id="g8"
       transform="matrix(0.16208583,0,0,0.16208583,5.1941296,-117.70139)"><path
         id="path4136"
         style="opacity:1;fill:none;fill-opacity:0.501961;stroke:#000000;stroke-width:3.54331;stroke-linecap:round"
         d="m 28.83513,1046.0744 c -2.87228,2.7949 -6.79442,4.5161 -11.118594,4.5161 -8.8061224,0 -15.9448924,-7.1388 -15.9448819,-15.9449 -1.05e-5,-8.8061 7.1387595,-15.9449 15.9448819,-15.9449 5.147533,0 9.725353,2.4392 12.640651,6.2249 0.167156,0.2171 0.328846,0.4385 0.484865,0.6642"
         sodipodi:nodetypes="cscscc" /><ellipse
         style="opacity:1;fill:#000000;fill-opacity:1;stroke:none;stroke-width:3.54331;stroke-linecap:round;stroke-miterlimit:4;stroke-dasharray:none;stroke-opacity:1"
         id="path4138"
         cx="12.63048"
         cy="1031.0532"
         rx="2.6574802"
         ry="3.5433071" /><path
         style="opacity:1;fill:none;fill-opacity:1;stroke:#000000;stroke-width:3.54375;stroke-linecap:round;stroke-linejoin:round;stroke-miterlimit:4;stroke-dasharray:none;stroke-opacity:1"
         id="path4140"
         sodipodi:type="arc"
         sodipodi:cx="22.630482"
         sodipodi:cy="1032.5247"
         sodipodi:rx="2.744256"
         sodipodi:ry="2.3569717"
         sodipodi:start="3.403392"
         sodipodi:end="6.0213859"
         d="m 19.979734,1031.9146 a 2.744256,2.3569717 0 0 1 2.650748,-1.7469 2.744256,2.3569717 0 0 1 2.650747,1.7469"
         sodipodi:open="true"
         sodipodi:arc-type="arc" /><path
         style="opacity:1;fill:none;fill-opacity:1;stroke:#000000;stroke-width:1.77177;stroke-linecap:round;stroke-linejoin:round;stroke-miterlimit:4;stroke-dasharray:none;stroke-opacity:1"
         id="path4162"
         sodipodi:type="arc"
         sodipodi:cx="295.34244"
         sodipodi:cy="1001.4343"
         sodipodi:rx="1.7996315"
         sodipodi:ry="1.7496966"
         sodipodi:start="3.6651914"
         sodipodi:end="0.78539816"
         sodipodi:open="true"
         d="m 293.78391,1000.5595 a 1.7996315,1.7496966 0 0 1 1.71538,-0.86821 1.7996315,1.7496966 0 0 1 1.53425,1.14461 1.7996315,1.7496966 0 0 1 -0.41857,1.8356"
         transform="matrix(0.96796803,0.25107348,-0.26676835,0.96376068,0,0)"
         sodipodi:arc-type="arc" /><path
         d="m 293.78391,-1004.7837 a 1.7996315,1.7496966 0 0 1 1.71538,-0.8682 1.7996315,1.7496966 0 0 1 1.53425,1.1446 1.7996315,1.7496966 0 0 1 -0.41857,1.8356"
         sodipodi:open="true"
         sodipodi:end="0.78539816"
         sodipodi:start="3.6651914"
         sodipodi:ry="1.7496966"
         sodipodi:rx="1.7996315"
         sodipodi:cy="-1003.9089"
         sodipodi:cx="295.34244"
         sodipodi:type="arc"
         id="path4168"
         style="opacity:1;fill:none;fill-opacity:1;stroke:#000000;stroke-width:1.77177;stroke-linecap:round;stroke-linejoin:round;stroke-miterlimit:4;stroke-dasharray:none;stroke-opacity:1"
         transform="matrix(0.96796803,0.25107348,0.26676835,-0.96376068,0,0)"
         sodipodi:arc-type="arc" /><path
         id="path3-4"
         style="stroke:none;stroke-width:10.6299;stroke-linecap:round;stroke-linejoin:round;stroke-dasharray:none;paint-order:stroke fill markers"
         d="m 302.72215,998.4295 c 3e-5,0.97847 -0.79318,1.7717 -1.77165,1.7717 -0.97847,0 -1.77168,-0.79323 -1.77165,-1.7717 0,-0.97845 0.7932,-1.77165 1.77165,-1.77165 0.97845,0 1.77165,0.7932 1.77165,1.77165 z m -3.64629,-13.99131 c -1.16243,-4e-5 -2.00999,1.1004 -1.71315,2.22429 l 1.87515,7.09627 c 0.46571,1.75711 2.95948,1.75722 3.42535,1.6e-4 l 1.87568,-7.09636 c 0.29667,-1.12414 -0.55145,-2.22454 -1.71408,-2.22395 z"
         sodipodi:nodetypes="cscscccccccc"
         transform="rotate(15)" /></g><text
       xml:space="preserve"
       style="font-size:4.23333px;line-height:1.25;font-family:'BIZ UDMincho';-inkscape-font-specification:'BIZ UDMincho';text-align:center;letter-spacing:0px;word-spacing:0px;text-anchor:middle;stroke-width:0.264583"
       x="13.485135"
       y="51.440487"
       id="text2"><tspan
         sodipodi:role="line"
         id="tspan2"
         style="stroke-width:0.264583;letter-spacing:0px"
         x="13.485135"
         y="51.440487" /></text><path
       d="m 12.673324,49.445801 q 0.220703,0 0.363281,0.146484 0.149414,0.15332 0.149414,0.402344 0,0.196289 -0.0918,0.336914 -0.141601,0.21582 -0.422851,0.21582 -0.246094,0 -0.388672,-0.171875 -0.125,-0.149414 -0.125,-0.381836 0,-0.249023 0.148437,-0.40039 0.143555,-0.147461 0.367188,-0.147461 z m -0.0029,0.211914 q -0.124023,0 -0.195313,0.107422 -0.05957,0.08984 -0.05957,0.227539 0,0.104492 0.0332,0.182617 0.06641,0.154297 0.22461,0.154297 0.125976,0 0.195312,-0.105469 0.05957,-0.09082 0.05957,-0.231445 0,-0.142578 -0.06348,-0.232422 -0.07129,-0.102539 -0.194336,-0.102539 z m 0.985352,0.704101 -0.01172,0.08008 q -0.01367,0.09375 -0.107422,0.09375 -0.104492,0 -0.104492,-0.106446 V 49.13916 q 0,-0.03906 0.02441,-0.06738 0.03613,-0.04004 0.100586,-0.04004 0.07422,0 0.108398,0.05078 0.0166,0.02441 0.0166,0.05664 v 0.448242 q 0.109375,-0.135742 0.307617,-0.135742 0.231445,0 0.37207,0.185547 0.112305,0.149414 0.112305,0.358398 0,0.225586 -0.115234,0.374024 -0.135743,0.173828 -0.365235,0.173828 -0.146484,0 -0.258789,-0.09082 -0.04785,-0.03809 -0.0791,-0.09082 z m 0.02441,-0.426757 v 0.07813 q 0,0.163086 0.120117,0.260742 0.06934,0.05566 0.15039,0.05566 0.116211,0 0.188477,-0.0918 0.07324,-0.0918 0.07324,-0.243164 0,-0.166992 -0.09473,-0.260742 -0.07129,-0.07031 -0.171875,-0.07031 -0.08691,0 -0.160157,0.05762 -0.105468,0.08399 -0.105468,0.213868 z m 1.414062,-0.489258 q 0.211914,0 0.339844,0.08887 0.06934,0.04785 0.06934,0.113281 0,0.03809 -0.02344,0.07129 -0.03223,0.04395 -0.08789,0.04395 -0.03613,0 -0.08008,-0.03418 -0.09961,-0.07715 -0.22168,-0.07715 -0.158203,0 -0.158203,0.08984 0,0.05274 0.05664,0.08203 0.01855,0.0088 0.06348,0.02344 0.264648,0.08105 0.327148,0.112305 0.163086,0.08105 0.163086,0.258789 0,0.165039 -0.130859,0.252929 -0.114258,0.07617 -0.30957,0.07617 -0.223633,0 -0.368164,-0.101562 -0.09375,-0.06641 -0.09375,-0.138672 0,-0.03418 0.02246,-0.06641 0.03125,-0.04395 0.08301,-0.04395 0.04102,0 0.07715,0.03418 0.109375,0.104492 0.277343,0.104492 0.174805,0 0.174805,-0.09375 0,-0.06348 -0.08789,-0.106445 -0.05664,-0.02637 -0.272461,-0.09277 -0.234375,-0.07129 -0.234375,-0.286132 0,-0.167969 0.161132,-0.254883 0.102539,-0.05566 0.25293,-0.05566 z m 0.956055,0.708008 v 0.273437 q 0,0.04687 -0.03223,0.0752 -0.03809,0.0332 -0.09375,0.0332 -0.08203,0 -0.113281,-0.05957 -0.01074,-0.02148 -0.01074,-0.04883 v -1.290039 q 0,-0.03906 0.02441,-0.06543 0.03613,-0.04004 0.09961,-0.04004 0.0791,0 0.112305,0.05469 0.01367,0.02246 0.01367,0.05078 v 0.728516 l 0.433594,-0.368164 q 0.04395,-0.03711 0.09082,-0.03711 0.04394,0 0.07813,0.0332 0.04199,0.04199 0.04199,0.09277 0,0.05078 -0.04297,0.08496 l -0.307617,0.246093 0.358399,0.393555 q 0.03613,0.04102 0.03613,0.09277 0,0.06152 -0.0459,0.0957 -0.04395,0.0332 -0.09375,0.0332 -0.05664,0 -0.09668,-0.04883 l -0.339844,-0.420899 z m 1.213867,0.288086 -0.416016,-0.810547 q -0.01367,-0.02637 -0.01367,-0.05274 0,-0.06836 0.06934,-0.104492 0.03223,-0.01758 0.06738,-0.01758 0.08301,0 0.125,0.08887 l 0.303711,0.644531 0.276367,-0.644531 q 0.03711,-0.08691 0.116211,-0.08691 0.04102,0 0.08106,0.01953 0.06445,0.03125 0.06445,0.09766 0,0.03027 -0.01563,0.06348 l -0.592773,1.242188 q -0.04102,0.08691 -0.120118,0.08691 -0.02539,0 -0.05176,-0.0088 -0.0791,-0.02637 -0.0791,-0.103516 0,-0.02441 0.01172,-0.04883 z m 1.118164,-0.484375 v 0.469726 q 0,0.04199 -0.02734,0.07031 -0.03711,0.03809 -0.09961,0.03809 -0.07422,0 -0.108399,-0.05078 -0.0166,-0.02441 -0.0166,-0.05762 v -0.868164 q 0,-0.03906 0.02441,-0.06641 0.03516,-0.03711 0.09473,-0.03711 0.0752,0 0.105468,0.05664 0.01172,0.02051 0.01172,0.04687 v 0.102539 q 0.04981,-0.08594 0.09961,-0.132812 0.0918,-0.08399 0.219727,-0.08399 0.100586,0 0.172852,0.06348 0.05176,0.0459 0.05176,0.104492 0,0.04199 -0.02832,0.07813 -0.03906,0.0498 -0.100586,0.0498 -0.04004,0 -0.06738,-0.02149 -0.03613,-0.02832 -0.08398,-0.02832 -0.145508,0 -0.248047,0.266602 z"
       id="text5"
       style="font-size:2px;line-height:1.25;font-family:'UD Digi Kyokasho NP-B';-inkscape-font-specification:'UD Digi Kyokasho NP-B';text-align:center;letter-spacing:0px;word-spacing:0px;text-anchor:middle;stroke-width:0.264583"
       aria-label="obskyr" /><rect
       style="fill:#000000;stroke-width:3.96023;stroke-linecap:round;stroke-linejoin:round;paint-order:stroke fill markers"
       id="rect5"
       width="2"
       height="2"
       x="-6.9388939e-18"
       y="-6.9388939e-18" /><path
       id="rect2-1"
       style="fill:#ffffff;stroke:#000000;stroke-width:0.249999;stroke-linecap:round;stroke-linejoin:round;stroke-dasharray:none;paint-order:stroke markers fill"
       d="M 3.5900784,5.999999 46.723238,6 Z"
       sodipodi:nodetypes="ccc" /><path
       id="path2-4"
       style="fill:#ffffff;stroke:#000000;stroke-width:0.249999;stroke-linecap:round;stroke-linejoin:round;stroke-dasharray:none;paint-order:stroke markers fill"
       d="M 3.5900784,9.999999 46.723238,10 Z"
       sodipodi:nodetypes="ccc" /><path
       id="path3-7"
       style="fill:#ffffff;stroke:#000000;stroke-width:0.249999;stroke-linecap:round;stroke-linejoin:round;stroke-dasharray:none;paint-order:stroke markers fill"
       d="m 3.5900784,14 43.1331596,10e-7 z"
       sodipodi:nodetypes="ccc" /><path
       id="path4-8"
       style="fill:#ffffff;stroke:#000000;stroke-width:0.249999;stroke-linecap:round;stroke-linejoin:round;stroke-dasharray:none;paint-order:stroke markers fill"
       d="m 3.5900784,18 43.1331596,1e-6 z"
       sodipodi:nodetypes="ccc" /><path
       id="path5-9"
       style="fill:#ffffff;stroke:#000000;stroke-width:0.249999;stroke-linecap:round;stroke-linejoin:round;stroke-dasharray:none;paint-order:stroke markers fill"
       d="m 39.709505,22 7.013733,1e-6 z"
       sodipodi:nodetypes="ccc" /><path
       id="path6-7"
       style="fill:#ffffff;stroke:#000000;stroke-width:0.249999;stroke-linecap:round;stroke-linejoin:round;stroke-dasharray:none;paint-order:stroke markers fill"
       d="m 39.380548,26 7.34269,1e-6 z"
       sodipodi:nodetypes="ccc" /><path
       id="path7-7"
       style="fill:#ffffff;stroke:#000000;stroke-width:0.249999;stroke-linecap:round;stroke-linejoin:round;stroke-dasharray:none;paint-order:stroke markers fill"
       d="m 3.5900784,30 43.1331596,1e-6 z"
       sodipodi:nodetypes="ccc" /><path
       id="path8-7"
       style="fill:#ffffff;stroke:#000000;stroke-width:0.249999;stroke-linecap:round;stroke-linejoin:round;stroke-dasharray:none;paint-order:stroke markers fill"
       d="m 3.5900784,34 43.1331596,10e-7 z"
       sodipodi:nodetypes="ccc" /><path
       id="path9-4"
       style="fill:#ffffff;stroke:#000000;stroke-width:0.249999;stroke-linecap:round;stroke-linejoin:round;stroke-dasharray:none;paint-order:stroke markers fill"
       d="m 3.5900784,38 43.1331596,10e-7 z"
       sodipodi:nodetypes="ccc" /><path
       id="path10-7"
       style="fill:#ffffff;stroke:#000000;stroke-width:0.249999;stroke-linecap:round;stroke-linejoin:round;stroke-dasharray:none;paint-order:stroke markers fill"
       d="m 3.5900784,42 43.1331596,10e-7 z"
       sodipodi:nodetypes="ccc" /><path
       id="path11-7"
       style="fill:#ffffff;stroke:#000000;stroke-width:0.249999;stroke-linecap:round;stroke-linejoin:round;stroke-dasharray:none;paint-order:stroke markers fill"
       d="m 3.5900784,46 43.1331596,10e-7 z"
       sodipodi:nodetypes="ccc" /><path
       id="path13-3"
       style="fill:#ffffff;stroke:#000000;stroke-width:0.249999;stroke-linecap:round;stroke-linejoin:round;stroke-dasharray:none;paint-order:stroke markers fill"
       d="M 42.409922,2 V 46 Z"
       sodipodi:nodetypes="ccc" /><path
       id="path14-4"
       style="fill:#ffffff;stroke:#000000;stroke-width:0.249999;stroke-linecap:round;stroke-linejoin:round;stroke-dasharray:none;paint-order:stroke markers fill"
       d="M 38.096606,2 V 20.051687 Z"
       sodipodi:nodetypes="ccc" /><path
       id="path15-0"
       style="fill:#ffffff;stroke:#000000;stroke-width:0.249999;stroke-linecap:round;stroke-linejoin:round;stroke-dasharray:none;paint-order:stroke markers fill"
       d="M 33.78329,2 V 19.393774 Z"
       sodipodi:nodetypes="ccc" /><path
       id="path16-2"
       style="fill:#ffffff;stroke:#000000;stroke-width:0.249999;stroke-linecap:round;stroke-linejoin:round;stroke-dasharray:none;paint-order:stroke markers fill"
       d="M 29.469974,2 V 19.1964 Z"
       sodipodi:nodetypes="ccc" /><path
       id="path17-2"
       style="fill:#ffffff;stroke:#000000;stroke-width:0.249999;stroke-linecap:round;stroke-linejoin:round;stroke-dasharray:none;paint-order:stroke markers fill"
       d="M 25.156658,2 V 19.459565 Z"
       sodipodi:nodetypes="ccc" /><path
       id="path18-3"
       style="fill:#ffffff;stroke:#000000;stroke-width:0.249999;stroke-linecap:round;stroke-linejoin:round;stroke-dasharray:none;paint-order:stroke markers fill"
       d="M 20.843342,2 V 19.262191 Z"
       sodipodi:nodetypes="ccc" /><path
       id="path19-6"
       style="fill:#ffffff;stroke:#000000;stroke-width:0.249999;stroke-linecap:round;stroke-linejoin:round;stroke-dasharray:none;paint-order:stroke markers fill"
       d="M 16.530026,2 V 20.314852 Z"
       sodipodi:nodetypes="ccc" /><path
       style="fill:#ffffff;stroke:#000000;stroke-width:0.249999;stroke-linecap:round;stroke-linejoin:round;stroke-dasharray:none;paint-order:stroke markers fill"
       d="M 12.21671,19.788521 V 2"
       id="path20-7"
       sodipodi:nodetypes="cc" /><path
       id="path21-3"
       style="fill:#ffffff;stroke:#000000;stroke-width:0.249999;stroke-linecap:round;stroke-linejoin:round;stroke-dasharray:none;paint-order:stroke markers fill"
       d="M 7.9033947,2 V 46 Z"
       sodipodi:nodetypes="ccc" /><path
       id="path39-4"
       style="fill:#ffffff;stroke:#000000;stroke-width:0.249999;stroke-linecap:round;stroke-linejoin:round;stroke-dasharray:none;paint-order:stroke markers fill"
       d="M 38.096606,27.527026 V 46 Z"
       sodipodi:nodetypes="ccc" /><path
       id="path40-8"
       style="fill:#ffffff;stroke:#000000;stroke-width:0.249999;stroke-linecap:round;stroke-linejoin:round;stroke-dasharray:none;paint-order:stroke markers fill"
       d="M 33.78329,28.316522 V 46 Z"
       sodipodi:nodetypes="ccc" /><path
       id="path41-3"
       style="fill:#ffffff;stroke:#000000;stroke-width:0.249999;stroke-linecap:round;stroke-linejoin:round;stroke-dasharray:none;paint-order:stroke markers fill"
       d="M 29.469974,28.382313 V 46 Z"
       sodipodi:nodetypes="ccc" /><path
       id="path42-9"
       style="fill:#ffffff;stroke:#000000;stroke-width:0.249999;stroke-linecap:round;stroke-linejoin:round;stroke-dasharray:none;paint-order:stroke markers fill"
       d="M 25.156658,27.921774 V 46 Z"
       sodipodi:nodetypes="ccc" /><path
       id="path43-4"
       style="fill:#ffffff;stroke:#000000;stroke-width:0.249999;stroke-linecap:round;stroke-linejoin:round;stroke-dasharray:none;paint-order:stroke markers fill"
       d="M 20.843342,28.382313 V 46 Z"
       sodipodi:nodetypes="ccc" /><path
       id="path44-5"
       style="fill:#ffffff;stroke:#000000;stroke-width:0.249999;stroke-linecap:round;stroke-linejoin:round;stroke-dasharray:none;paint-order:stroke markers fill"
       d="M 16.530026,27.395444 V 46 Z"
       sodipodi:nodetypes="ccc" /><path
       style="fill:#ffffff;stroke:#000000;stroke-width:0.249999;stroke-linecap:round;stroke-linejoin:round;stroke-dasharray:none;paint-order:stroke markers fill"
       d="M 12.21671,46 V 27.888449"
       id="path45-7"
       sodipodi:nodetypes="cc" /><path
       id="path46-1"
       style="fill:#ffffff;stroke:#000000;stroke-width:0.249999;stroke-linecap:round;stroke-linejoin:round;stroke-dasharray:none;paint-order:stroke markers fill"
       d="m 3.5900784,22 6.0926549,1e-6 z"
       sodipodi:nodetypes="ccc" /><path
       id="path47-6"
       style="fill:#ffffff;stroke:#000000;stroke-width:0.249999;stroke-linecap:round;stroke-linejoin:round;stroke-dasharray:none;paint-order:stroke markers fill"
       d="m 3.5900784,26 7.1453156,1e-6 z"
       sodipodi:nodetypes="ccc" /></g></svg>
