<?xml version="1.0" encoding="UTF-8" standalone="no"?>
<!-- Generator: Adobe Illustrator 13.0.2, SVG Export Plug-In . SVG Version: 6.00 Build 14948)  -->

<svg
   version="1.2"
   id="Layer_1"
   x="0px"
   y="0px"
   width="98.267715"
   height="103.26332"
   viewBox="0 0 98.267712 103.26332"
   xml:space="preserve"
   sodipodi:docname="oshw-logo-outline.svg"
   inkscape:version="1.3.2 (091e20e, 2023-11-25, custom)"
   xmlns:inkscape="http://www.inkscape.org/namespaces/inkscape"
   xmlns:sodipodi="http://sodipodi.sourceforge.net/DTD/sodipodi-0.dtd"
   xmlns="http://www.w3.org/2000/svg"
   xmlns:svg="http://www.w3.org/2000/svg"><defs
   id="defs17" /><sodipodi:namedview
   id="namedview17"
   pagecolor="#ffffff"
   bordercolor="#666666"
   borderopacity="1.0"
   inkscape:showpageshadow="2"
   inkscape:pageopacity="0.0"
   inkscape:pagecheckerboard="0"
   inkscape:deskcolor="#d1d1d1"
   inkscape:zoom="2.6520125"
   inkscape:cx="37.518676"
   inkscape:cy="53.732777"
   inkscape:window-width="1920"
   inkscape:window-height="1017"
   inkscape:window-x="-8"
   inkscape:window-y="-8"
   inkscape:window-maximized="1"
   inkscape:current-layer="Layer_1" />
<path
   fill-rule="evenodd"
   fill="#333333"
   d="m 26.01466,103.14179 h 2.061341 v -6.991332 c 0,-2.52518 -1.737848,-3.37414 -4.263604,-3.37414 -1.535879,0 -2.667249,0.40337 -3.455157,1.49537 l 1.616324,1.23236 c 0.363431,-0.58594 0.868924,-0.78905 1.939818,-0.78905 1.474831,0 2.101278,0.3446 2.101278,1.31394 v 1.07089 h -2.849249 c -2.202263,0 -3.333633,1.39496 -3.333633,3.031252 0,1.77836 1.333339,3.13224 3.616618,3.13224 1.394386,0 2.101849,-0.32292 2.525756,-1.03096 h 0.04051 z m 0,-3.597222 c 0,1.596932 -0.585939,1.778362 -2.303248,1.778362 -1.394386,0 -1.940387,-0.60648 -1.940387,-1.29283 0,-0.747972 0.56597,-1.233502 1.778926,-1.233502 h 2.464709 z"
   id="path1"
   style="stroke-width:0.570534" />
<path
   fill-rule="evenodd"
   fill="#333333"
   d="m 30.339882,103.14179 h 2.06077 v -6.163482 c 0,-1.49423 0.990448,-2.14179 2.000865,-2.14179 0.525462,0 0.868924,0.1415 1.353878,0.50607 l 1.4948,-1.77836 c -0.626446,-0.48495 -1.312799,-0.78791 -2.141786,-0.78791 -1.090862,0 -2.020833,0.40451 -2.667249,1.21239 h -0.04051 v -1.09086 h -2.06077 z"
   id="path2"
   style="stroke-width:0.570534" />
<path
   fill-rule="evenodd"
   fill="#333333"
   d="m 43.41482,103.14179 h 2.060771 V 88.754628 H 43.41482 v 5.23408 c -0.767939,-0.72743 -1.596355,-1.21239 -2.64728,-1.21239 -1.252893,0 -2.161755,0.56483 -2.747694,1.33391 -0.56597,0.72629 -0.727431,1.39268 -0.727431,3.90018 0,2.525182 0.161461,3.191572 0.727431,3.919002 0.585939,0.76794 1.494801,1.33391 2.747694,1.33391 1.050925,0 2.000865,-0.4861 2.64728,-1.19242 z m -2.020833,-8.305272 c 1.919849,0 2.020833,1.69849 2.020833,3.17389 0,1.49537 -0.100984,3.191572 -2.020833,3.191572 -1.939817,0 -2.040801,-1.595792 -2.040801,-3.191572 0,-1.57696 0.100984,-3.17389 2.040801,-3.17389"
   id="path3"
   style="stroke-width:0.570534" />
<polygon
   fill-rule="evenodd"
   fill="#333333"
   points="103.242,162.826 99.809,175.398 99.736,175.398 95.664,162.826 93.043,162.826 88.971,175.398 88.9,175.398 85.464,162.826 81.64,162.826 87.377,180.781 90.564,180.781 94.318,168.208 94.389,168.208 98.143,180.781 101.332,180.781 107.068,162.826 "
   id="polygon3"
   transform="scale(0.57053447)" />
<path
   fill-rule="evenodd"
   fill="#333333"
   d="m 67.429188,103.14179 h 2.06134 v -6.991332 c 0,-2.52518 -1.73842,-3.37414 -4.2636,-3.37414 -1.53531,0 -2.667823,0.40337 -3.455731,1.49537 l 1.616891,1.23236 c 0.36343,-0.58594 0.86779,-0.78905 1.93868,-0.78905 1.4754,0 2.10185,0.3446 2.10185,1.31394 v 1.07089 h -2.84925 c -2.201693,0 -3.334204,1.39496 -3.334204,3.031252 0,1.77836 1.333909,3.13224 3.617184,3.13224 1.39382,0 2.10185,-0.32292 2.52633,-1.03096 h 0.0399 v 0.90943 z m 0,-3.597222 c 0,1.596932 -0.58594,1.778362 -2.30325,1.778362 -1.39381,0 -1.93982,-0.60648 -1.93982,-1.29283 0,-0.747972 0.56597,-1.233502 1.77836,-1.233502 h 2.46471 z"
   id="path4"
   style="stroke-width:0.570534" />
<path
   fill-rule="evenodd"
   fill="#333333"
   d="m 71.754978,103.14179 h 2.0602 v -6.163482 c 0,-1.49423 0.98931,-2.14179 2.0003,-2.14179 0.52603,0 0.86892,0.1415 1.35387,0.50607 l 1.49537,-1.77836 c -0.62644,-0.48495 -1.31394,-0.78791 -2.14178,-0.78791 -1.09086,0 -2.02026,0.40451 -2.66668,1.21239 h -0.0411 v -1.09086 h -2.0602 v 10.243942 z"
   id="path5"
   style="stroke-width:0.570534" />
<path
   fill-rule="evenodd"
   fill="#333333"
   d="m 87.147998,98.797738 v -1.69848 c 0,-2.64671 -1.95921,-4.32351 -4.22195,-4.32351 -1.98033,0 -4.2231,1.29283 -4.2231,5.27288 0,4.203132 2.44474,5.214122 4.54659,5.214122 1.37385,0 2.68665,-0.48496 3.69706,-1.65683 l -1.49537,-1.27344 c -0.60648,0.62759 -1.45543,0.99045 -2.2422,0.99045 -1.41492,0 -2.44474,-0.84895 -2.44474,-2.525192 z m -6.38371,-1.69791 c 0.0399,-1.55584 0.94937,-2.38483 2.16176,-2.38483 1.21238,0 2.10185,0.82899 2.16175,2.38483 z"
   id="path6"
   style="stroke-width:0.570534" />
<path
   fill-rule="evenodd"
   fill="#333333"
   d="m 0,81.828908 c 0,2.22223 0.322922,3.07119 1.11083,3.94011 0.565971,0.62645 1.51591,1.3128 3.112266,1.3128 1.595785,0 2.545725,-0.68635 3.111695,-1.3128 0.787908,-0.86892 1.111401,-1.71845 1.111401,-3.94011 0,-2.20284 -0.323493,-3.05122 -1.111401,-3.92014 -0.56597,-0.62645 -1.51591,-1.31394 -3.111695,-1.31394 -1.596356,0 -2.546295,0.68749 -3.112266,1.31394 C 0.322922,78.778258 0,79.626068 0,81.828908 m 6.384851,0.02 c 0,1.4754 -0.120953,1.87877 -0.504923,2.42477 -0.303524,0.42448 -0.94994,0.74797 -1.656832,0.74797 -0.707463,0 -1.353878,-0.32292 -1.656832,-0.74797 -0.38397,-0.546 -0.505494,-0.94937 -0.505494,-2.44474 0,-1.4754 0.121524,-1.87991 0.505494,-2.42477 0.302954,-0.42448 0.949369,-0.74797 1.656832,-0.74797 0.706892,0 1.353308,0.32292 1.656832,0.74797 0.38397,0.54486 0.504923,0.94937 0.504923,2.44474"
   id="path7"
   style="stroke-width:0.570534" />
<path
   fill-rule="evenodd"
   fill="#333333"
   d="m 28.22377,82.616818 v -1.69734 c 0,-2.64785 -1.959786,-4.32465 -4.222526,-4.32465 -1.980896,0 -4.223096,1.29397 -4.223096,5.27402 0,4.20198 2.44474,5.21297 4.546018,5.21297 1.374418,0 2.687218,-0.48495 3.697634,-1.65683 l -1.49537,-1.27229 c -0.605908,0.62644 -1.454293,0.99044 -2.242201,0.99044 -1.414925,0 -2.445311,-0.84895 -2.445311,-2.52632 z m -6.384852,-1.69677 c 0.04051,-1.55699 0.94994,-2.38484 2.162326,-2.38484 1.212386,0 2.101278,0.82785 2.161755,2.38484 z"
   id="path8"
   style="stroke-width:0.570534" />
<path
   fill-rule="evenodd"
   fill="#333333"
   d="m 29.982727,86.960298 h 2.060771 v -6.10073 c 0,-1.39496 0.868924,-2.20283 2.040802,-2.20283 1.151909,0 2.020833,0.80787 2.020833,2.20283 v 6.10073 h 2.06077 v -6.80876 c 0,-2.32436 -1.818293,-3.55671 -3.414649,-3.55671 -1.090861,0 -2.020833,0.4045 -2.666678,1.21238 h -0.04108 v -1.09086 h -2.060771 v 10.24395 z"
   id="path9"
   style="stroke-width:0.570534" />
<path
   fill-rule="evenodd"
   fill="#333333"
   d="m 43.738313,85.243558 c 1.313371,1.23235 2.84925,1.83883 4.506082,1.83883 2.384263,0 4.243065,-1.15134 4.243065,-3.1522 0,-1.63573 -0.847815,-2.9297 -2.970203,-3.07119 l -1.69734,-0.12038 c -1.030385,-0.0816 -1.353308,-0.52604 -1.353308,-0.97048 0,-0.70632 0.444447,-1.23236 1.757247,-1.23236 1.111971,0 1.940958,0.38454 2.748835,0.94937 l 1.272291,-1.49423 c -1.010416,-0.84895 -2.222231,-1.39495 -4.021697,-1.39495 -2.161755,0 -3.818587,1.07089 -3.818587,3.1522 0,1.75725 1.252893,2.76823 2.949663,2.90973 l 1.818864,0.16146 c 0.708033,0.0599 1.252894,0.28298 1.252894,1.01041 0,0.86893 -0.849526,1.3128 -2.020834,1.3128 -1.373847,0 -2.343755,-0.4433 -3.232648,-1.3128 z"
   id="path10"
   style="stroke-width:0.570534" />
<path
   fill-rule="evenodd"
   fill="#333333"
   d="m 53.659337,81.828908 c 0,2.22223 0.324064,3.07119 1.111972,3.94011 0.56597,0.62645 1.51534,1.3128 3.111125,1.3128 1.596926,0 2.546295,-0.68635 3.112265,-1.3128 0.787908,-0.86892 1.110831,-1.71845 1.110831,-3.94011 0,-2.20284 -0.322923,-3.05122 -1.110831,-3.92014 -0.56597,-0.62645 -1.515339,-1.31394 -3.112265,-1.31394 -1.595785,0 -2.545155,0.68749 -3.111125,1.31394 -0.787908,0.86949 -1.111972,1.7173 -1.111972,3.92014 m 6.384852,0.02 c 0,1.4754 -0.120383,1.87877 -0.504923,2.42477 -0.302954,0.42448 -0.94937,0.74797 -1.656832,0.74797 -0.706322,0 -1.353879,-0.32292 -1.655691,-0.74797 -0.384541,-0.546 -0.506065,-0.94937 -0.506065,-2.44474 0,-1.4754 0.121524,-1.87991 0.506065,-2.42477 0.301812,-0.42448 0.949369,-0.74797 1.655691,-0.74797 0.707462,0 1.353878,0.32292 1.656832,0.74797 0.38454,0.54486 0.504923,0.94937 0.504923,2.44474"
   id="path11"
   style="stroke-width:0.570534" />
<path
   fill-rule="evenodd"
   fill="#333333"
   d="m 63.865058,83.526248 c 0,2.32322 1.81886,3.55557 3.43519,3.55557 1.06975,0 2.00029,-0.40451 2.64671,-1.21239 h 0.0399 v 1.09201 h 2.0602 v -10.24509 h -2.0602 v 6.10187 c 0,1.39381 -0.86892,2.20283 -2.0214,2.20283 -1.17131,0 -2.04023,-0.80902 -2.04023,-2.20283 v -6.10187 h -2.0602 v 6.8099 z"
   id="path12"
   style="stroke-width:0.570534" />
<path
   fill-rule="evenodd"
   fill="#333333"
   d="m 74.307548,86.960298 h 2.06134 v -6.16235 c 0,-1.49537 0.98931,-2.14178 2.0003,-2.14178 0.52603,0 0.86892,0.14149 1.35388,0.50492 l 1.49537,-1.77836 c -0.62759,-0.48495 -1.3128,-0.7879 -2.14179,-0.7879 -1.09086,0 -2.0214,0.4045 -2.66782,1.21238 h -0.0399 v -1.09086 h -2.06134 v 10.24395 z"
   id="path13"
   style="stroke-width:0.570534" />
<path
   fill-rule="evenodd"
   fill="#333333"
   d="m 87.781868,83.950728 c -0.50493,0.62644 -1.23236,1.07089 -2.08017,1.07089 -1.6768,0 -2.66782,-0.95051 -2.66782,-3.17388 0,-2.2422 0.99045,-3.19157 2.66782,-3.19157 0.84781,0 1.57581,0.44444 2.08017,1.07089 l 1.51533,-1.35388 c -0.88832,-1.03095 -2.12181,-1.77835 -3.67709,-1.77835 -2.36372,0 -4.647,1.49537 -4.647,5.25291 0,3.73985 2.28328,5.23408 4.647,5.23408 1.55585,0 2.78934,-0.74797 3.67709,-1.77722 z"
   id="path14"
   style="stroke-width:0.570534" />
<path
   fill-rule="evenodd"
   fill="#333333"
   d="m 98.267718,82.616818 v -1.69734 c 0,-2.64785 -1.9615,-4.32465 -4.2231,-4.32465 -1.98146,0 -4.22309,1.29397 -4.22309,5.27402 0,4.20198 2.44474,5.21297 4.54659,5.21297 1.37384,0 2.68778,-0.48495 3.69706,-1.65683 l -1.49537,-1.27229 c -0.60648,0.62644 -1.45429,0.99044 -2.2422,0.99044 -1.41493,0 -2.44474,-0.84895 -2.44474,-2.52632 z m -6.38485,-1.69677 c 0.0399,-1.55699 0.94937,-2.38484 2.16175,-2.38484 1.21239,0 2.10071,0.82785 2.16176,2.38484 z"
   id="path15"
   style="stroke-width:0.570534" />
<path
   fill="#333333"
   d="m 14.286753,85.021618 c 1.939818,0 2.040802,-1.59693 2.040802,-3.17274 0,-1.59693 -0.100984,-3.19271 -2.040802,-3.19271 -1.919277,0 -2.020833,1.69734 -2.020833,3.19271 0,1.4754 0.100985,3.17274 2.020833,3.17274 M 10.197162,103.14179 V 76.716918 h 2.068758 v 1.07089 c 0.646986,-0.70746 1.596356,-1.19241 2.64728,-1.19241 1.252323,0 2.162326,0.56597 2.748265,1.33391 0.5654,0.72743 0.726861,1.39381 0.726861,3.92014 0,2.50521 -0.161461,3.17274 -0.726861,3.89903 -0.585939,0.76794 -1.495942,1.33391 -2.748265,1.33391 -1.050924,0 -1.87934,-0.48495 -2.64728,-1.21239 l -0.0074,8.11871 c 0.686924,-0.80788 1.616325,-1.21239 2.707186,-1.21239 1.596356,0 3.414649,1.23236 3.414649,3.55557 v 6.809902 h -2.06077 v -6.101862 c 0,-1.39496 -0.868924,-2.20284 -2.020833,-2.20284 -1.171878,0 -2.040232,0.80788 -2.040232,2.20284 v 6.101862 z"
   id="path16"
   style="stroke-width:0.570534" />
<g
   id="g17"
   transform="scale(0.57053447)">
	<path
   fill="#333333"
   d="m 152.336,57.604 -16.439,-3.057 c -0.4,-0.075 -0.838,-0.451 -0.973,-0.837 l -5.039,-11.756 c -0.188,-0.363 -0.152,-0.933 0.08,-1.271 l 9.578,-13.96 c 0.229,-0.336 0.184,-0.847 -0.105,-1.136 L 127.475,13.624 c -0.289,-0.289 -0.799,-0.336 -1.135,-0.105 l -14.205,9.748 c -0.336,0.231 -0.912,0.272 -1.277,0.092 L 99.462,18.694 c -0.387,-0.128 -0.764,-0.561 -0.84,-0.962 L 95.457,0.729 C 95.383,0.328 94.988,0 94.58,0 H 77.66 C 77.253,0 76.858,0.328 76.784,0.729 L 73.62,17.732 c -0.076,0.401 -0.452,0.834 -0.84,0.962 l -11.397,4.665 c -0.366,0.18 -0.942,0.139 -1.277,-0.092 L 45.902,13.519 c -0.337,-0.231 -0.848,-0.184 -1.136,0.105 L 32.802,25.587 c -0.288,0.289 -0.336,0.8 -0.105,1.136 l 9.579,13.96 c 0.23,0.338 0.266,0.908 0.079,1.271 l -5.04,11.756 c -0.134,0.386 -0.571,0.762 -0.973,0.837 l -16.438,3.057 c -0.402,0.076 -0.729,0.47 -0.729,0.878 l 10e-4,16.919 c 0,0.408 0.328,0.805 0.729,0.878 l 16.035,2.984 c 0.401,0.073 0.83,0.454 0.952,0.843 l 5.006,12.505 c 0.179,0.367 0.137,0.941 -0.095,1.277 l -9.108,13.273 c -0.23,0.336 -0.183,0.848 0.105,1.137 l 11.965,11.963 c 0.288,0.287 0.799,0.334 1.136,0.105 l 13.038,-8.949 c 0.336,-0.23 0.899,-0.248 1.25,-0.043 l 5.75,3.07 c 0.364,0.186 0.789,0.029 0.945,-0.348 L 78.74,85.449 c 0.157,-0.377 0,-0.858 -0.348,-1.071 l -1.439,-0.881 c -0.266,-0.162 -0.627,-0.441 -0.91,-0.697 -5.191,-3.324 -8.635,-9.139 -8.635,-15.761 0,-10.334 8.378,-18.711 18.711,-18.711 10.333,0 18.71,8.377 18.71,18.711 0,6.622 -3.443,12.437 -8.635,15.761 -0.281,0.256 -0.643,0.535 -0.908,0.697 l -1.439,0.881 c -0.346,0.213 -0.504,0.694 -0.348,1.071 l 11.855,28.648 c 0.156,0.377 0.58,0.533 0.945,0.348 l 5.75,-3.07 c 0.352,-0.205 0.914,-0.188 1.25,0.043 l 13.039,8.949 c 0.336,0.229 0.848,0.182 1.135,-0.105 l 11.965,-11.963 c 0.289,-0.289 0.336,-0.801 0.105,-1.137 l -9.109,-13.273 c -0.23,-0.336 -0.273,-0.91 -0.094,-1.277 l 5.006,-12.505 c 0.123,-0.389 0.549,-0.77 0.951,-0.843 l 16.035,-2.984 c 0.4,-0.073 0.729,-0.47 0.729,-0.878 l 0.002,-16.919 c 0.001,-0.409 -0.327,-0.803 -0.727,-0.879 z m -2.874,15.947 -13.822,2.572 c -1.047,0.207 -1.727,0.645 -2.313,1.151 -0.531,0.487 -1.004,1.053 -1.337,1.934 l -4.971,12.415 c -0.317,0.736 -0.384,1.356 -0.39,1.924 0.021,0.896 0.168,1.758 0.84,2.781 l 7.834,11.416 -8.782,8.781 -11.184,-7.676 c -0.979,-0.648 -1.855,-0.805 -2.705,-0.818 -0.717,0.008 -1.453,0.127 -2.276,0.568 h -10e-4 l -2.903,1.551 -9.744,-23.547 c 0.234,-0.169 0.45,-0.343 0.668,-0.528 C 104.423,82.1 108.43,75.227 108.43,67.438 108.428,55.114 98.443,45.128 86.12,45.126 73.798,45.128 63.812,55.114 63.808,67.438 c 0.002,7.789 4.008,14.661 10.056,18.636 0.216,0.184 0.431,0.357 0.668,0.528 l -9.743,23.548 -2.903,-1.551 c -0.835,-0.447 -1.583,-0.561 -2.281,-0.568 -0.86,0.014 -1.729,0.172 -2.708,0.822 l -11.177,7.672 -8.784,-8.781 7.835,-11.42 c 0.666,-1.021 0.817,-1.878 0.838,-2.777 -0.008,-0.582 -0.082,-1.203 -0.388,-1.92 L 40.242,79.185 C 39.907,78.309 39.433,77.752 38.908,77.27 38.319,76.766 37.645,76.331 36.588,76.122 L 22.777,73.552 22.776,61.133 37,58.484 c 1.031,-0.207 1.692,-0.624 2.277,-1.111 0.521,-0.463 0.994,-0.997 1.346,-1.846 l 0.002,10e-4 5.01,-11.69 c 0.338,-0.739 0.433,-1.396 0.439,-2.036 -0.019,-0.875 -0.164,-1.731 -0.819,-2.743 l -8.316,-12.117 8.782,-8.782 12.348,8.475 c 1.031,0.672 1.878,0.813 2.774,0.833 0.586,-0.005 1.206,-0.08 1.926,-0.389 l 11.354,-4.647 c 0.879,-0.346 1.433,-0.826 1.907,-1.352 0.494,-0.586 0.915,-1.248 1.126,-2.276 L 79.91,4 h 12.418 l 2.752,14.79 c 0.216,1.047 0.637,1.707 1.13,2.291 0.478,0.53 1.032,1.01 1.919,1.357 l 11.356,4.649 c 0.712,0.303 1.318,0.377 1.908,0.385 0.888,-0.023 1.744,-0.162 2.774,-0.833 l 12.352,-8.478 8.781,8.783 -8.305,12.103 c -0.668,0.997 -0.814,1.876 -0.834,2.757 0.006,0.625 0.098,1.263 0.413,1.97 l 5.038,11.756 h 0.001 c 0.354,0.85 0.827,1.383 1.349,1.846 0.583,0.485 1.238,0.902 2.272,1.111 l 14.228,2.646 z"
   id="path17" />
</g>
</svg>
